<?xml version="1.0" standalone="no"?>
<!DOCTYPE svg PUBLIC "-//W3C//DTD SVG 1.1//EN" "http://www.w3.org/Graphics/SVG/1.1/DTD/svg11.dtd" >
<svg xmlns="http://www.w3.org/2000/svg">
<metadata></metadata>
<defs>
<font id="aktiv_groteskmedium_italic" horiz-adv-x="1212" >
<font-face units-per-em="2048" ascent="1638" descent="-410" />
<missing-glyph horiz-adv-x="456" />
<glyph unicode="&#xfb01;" horiz-adv-x="1232" d="M131 0l186 881h-167l38 184h168l19 84q39 176 129 253t250 77q74 0 131 -15.5t82 -27.5l-66 -166q-23 10 -54.5 17t-72.5 7q-74 0 -113.5 -37.5t-56.5 -121.5l-14 -70h256l-39 -184h-258l-187 -881h-231zM797 0l225 1065h233l-225 -1065h-233zM1046 1231l50 231h243 l-49 -231h-244z" />
<glyph unicode="&#xfb02;" horiz-adv-x="1232" d="M131 0l186 881h-167l38 184h168l19 84q39 176 129 253t250 77q74 0 131 -15.5t82 -27.5l-66 -166q-23 10 -54.5 17t-72.5 7q-74 0 -113.5 -37.5t-56.5 -121.5l-14 -70h256l-39 -184h-258l-187 -881h-231zM797 0l309 1462h233l-309 -1462h-233z" />
<glyph unicode="&#xfb03;" horiz-adv-x="1961" d="M131 0l186 881h-167l38 184h168l19 84q39 176 129 253t250 77q74 0 131 -15.5t82 -27.5l-66 -166q-23 10 -54.5 17t-72.5 7q-74 0 -113.5 -37.5t-56.5 -121.5l-14 -70h256l-39 -184h-258l-187 -881h-231zM860 0l186 881h-167l38 184h168l19 84q39 176 129 253t250 77 q74 0 131 -15.5t82 -27.5l-66 -166q-23 10 -54.5 17t-72.5 7q-74 0 -113.5 -37.5t-56.5 -121.5l-14 -70h256l-39 -184h-258l-187 -881h-231zM1526 0l225 1065h233l-225 -1065h-233zM1775 1231l50 231h243l-49 -231h-244z" />
<glyph unicode="&#xfb04;" horiz-adv-x="1961" d="M131 0l186 881h-167l38 184h168l19 84q39 176 129 253t250 77q74 0 131 -15.5t82 -27.5l-66 -166q-23 10 -54.5 17t-72.5 7q-74 0 -113.5 -37.5t-56.5 -121.5l-14 -70h256l-39 -184h-258l-187 -881h-231zM860 0l186 881h-167l38 184h168l19 84q39 176 129 253t250 77 q74 0 131 -15.5t82 -27.5l-66 -166q-23 10 -54.5 17t-72.5 7q-74 0 -113.5 -37.5t-56.5 -121.5l-14 -70h256l-39 -184h-258l-187 -881h-231zM1526 0l309 1462h233l-309 -1462h-233z" />
<glyph unicode="&#xd;" horiz-adv-x="456" />
<glyph horiz-adv-x="0" />
<glyph horiz-adv-x="0" />
<glyph unicode=" "  horiz-adv-x="456" />
<glyph unicode="&#x09;" horiz-adv-x="456" />
<glyph unicode="&#xa0;" horiz-adv-x="456" />
<glyph unicode="!" horiz-adv-x="516" d="M76 0l59 281h240l-60 -281h-239zM176 440l199 1022h250l-234 -1022h-215z" />
<glyph unicode="&#x22;" horiz-adv-x="731" d="M188 920l101 536h221l-129 -536h-193zM547 920l100 536h221l-129 -536h-192z" />
<glyph unicode="#" d="M53 342l33 172h205l131 360h-199l35 173h225l123 342h203l-125 -342h264l123 342h203l-123 -342h158l-35 -173h-184l-132 -360h175l-33 -172h-203l-123 -342h-203l125 342h-266l-123 -342h-201l121 342h-174zM492 514h266l129 360h-264z" />
<glyph unicode="$" d="M70 422h229q4 -109 50 -172.5t145 -85.5l100 467l-6 2q-188 45 -269 139t-81 234q0 104 37.5 186t106.5 139.5t166 88t218 30.5l39 178h135l-41 -188q162 -29 251 -131.5t105 -261.5l-221 -27q-18 98 -55 156.5t-117 80.5l-96 -448l22 -4q186 -49 267.5 -144.5 t81.5 -230.5q0 -236 -142.5 -351.5t-390.5 -115.5h-16l-43 -201h-135l45 213q-80 14 -149.5 45t-121 85.5t-82 132t-32.5 184.5zM467 1034q0 -80 41 -125t131 -67l90 426q-139 -8 -200.5 -75t-61.5 -159zM627 152q74 0 125 19t83.5 53t47 79t14.5 98q0 29 -6 58.5 t-24.5 56.5t-51.5 49.5t-86 34.5h-6z" />
<glyph unicode="%" horiz-adv-x="1933" d="M180 893q0 98 27.5 197.5t85 179.5t143.5 130t201 50q66 0 121 -23.5t96 -67.5t64.5 -105.5t23.5 -137.5q0 -100 -27 -199.5t-83 -178.5t-142 -128t-205 -49q-133 0 -219 89t-86 243zM383 895q0 -158 125 -158q63 0 107 38t71.5 94.5t40 122t12.5 122.5q0 158 -127 158 q-61 0 -105 -38t-72 -94.5t-40 -123t-12 -121.5zM424 0l1013 1415h232l-1014 -1415h-231zM1151 299q0 98 27.5 197.5t85 179.5t143.5 130t201 50q66 0 121 -23.5t96 -67.5t64.5 -105.5t23.5 -137.5q0 -100 -27 -199.5t-83 -178.5t-142 -128t-205 -49q-133 0 -219 89t-86 243 zM1354 301q0 -158 125 -158q63 0 107 38t71.5 94.5t40 122t12.5 122.5q0 158 -127 158q-61 0 -105 -38t-72 -94.5t-40 -123t-12 -121.5z" />
<glyph unicode="&#x26;" horiz-adv-x="1337" d="M86 338q0 86 25.5 152.5t78 122t128 103.5t178.5 97q-14 18 -23 37q-29 51 -53.5 118.5t-24.5 133.5q0 80 25.5 148.5t75 118.5t123 78t172.5 28q82 0 143 -24t101 -62.5t59.5 -90t19.5 -104.5q0 -88 -26.5 -153.5t-72.5 -117t-108.5 -90t-132.5 -71.5l234 -365 q45 78 67.5 160t28.5 156h209q-10 -127 -56.5 -252t-134.5 -230l152 -231h-248l-59 90q-82 -57 -177 -90t-212 -33q-113 0 -203 23.5t-154.5 71t-99.5 117t-35 159.5zM322 367q0 -41 12 -79t44 -68t85 -48t135 -18q92 0 156.5 23.5t113.5 62.5l-282 434 q-61 -31 -109.5 -60.5t-83.5 -65.5t-53 -80t-18 -101zM604 1116q0 -57 24.5 -110.5t41.5 -83.5q4 -6 7 -12.5t7 -10.5q51 25 93 49.5t72 57t46 72.5t16 96q0 59 -35.5 95t-97.5 36q-78 0 -126 -47.5t-48 -141.5z" />
<glyph unicode="'" horiz-adv-x="382" d="M188 920l101 536h231l-127 -536h-205z" />
<glyph unicode="(" horiz-adv-x="575" d="M115 274q0 166 32.5 332t94 323.5t148.5 303t196 270.5h223q-207 -272 -330 -589.5t-123 -669.5q0 -135 16.5 -252t61.5 -246h-219q-20 49 -38.5 112.5t-32 134t-21.5 143.5t-8 138z" />
<glyph unicode=")" horiz-adv-x="575" d="M-106 -254q207 272 329.5 589.5t122.5 670.5q0 135 -16.5 251.5t-61.5 245.5h219q20 -49 39 -112.5t32 -134t21.5 -143.5t8.5 -138q0 -166 -33 -332t-94.5 -323.5t-148.5 -303t-195 -270.5h-223z" />
<glyph unicode="*" horiz-adv-x="825" d="M225 874l240 199l-229 72l90 182l202 -123l15 258h215l-92 -258l227 115l57 -186l-266 -62l158 -219l-166 -104l-117 227l-188 -223z" />
<glyph unicode="+" d="M182 596l45 203h375l86 405h211l-86 -405h375l-43 -203h-377l-84 -406h-211l86 406h-377z" />
<glyph unicode="," horiz-adv-x="481" d="M-25 -195l166 482h236l-219 -482h-183z" />
<glyph unicode="-" horiz-adv-x="798" d="M131 489l49 232h606l-49 -232h-606z" />
<glyph unicode="." horiz-adv-x="481" d="M49 0l60 285h247l-59 -285h-248z" />
<glyph unicode="/" horiz-adv-x="731" d="M-57 0l788 1503h240l-789 -1503h-239z" />
<glyph unicode="0" d="M129 469q0 98 15.5 210t49 220.5t87 209.5t128 177t173 122t221.5 46q98 0 178 -34t138.5 -98.5t90 -158.5t31.5 -213q0 -100 -14.5 -211.5t-47 -221t-85 -210t-127 -177.5t-174 -122t-226.5 -45q-98 0 -178 34t-138 98.5t-90 158.5t-32 215zM373 465q0 -137 51 -217 t158 -80q106 0 185 75.5t130 192.5t75.5 254t24.5 260q0 139 -51.5 219t-157.5 80t-185 -76.5t-130 -193.5t-75.5 -254t-24.5 -260z" />
<glyph unicode="1" d="M346 1159l479 256h228l-299 -1415h-238l244 1151l-320 -168z" />
<glyph unicode="2" d="M47 0l39 182q43 33 95 73t109.5 82t114 84t105.5 79q94 72 179 137t149.5 129.5t102.5 134.5t38 152q0 96 -56.5 146t-148.5 50q-121 0 -194.5 -51t-118.5 -186l-221 30q25 88 65.5 164t105 131.5t158 86t222.5 30.5q113 0 194.5 -30.5t133.5 -84t78 -124t26 -148.5 q0 -104 -37 -189t-101.5 -160t-149.5 -143.5t-181 -140.5q-78 -57 -159 -115.5t-153 -111.5h629l-70 -207h-954z" />
<glyph unicode="3" d="M111 420h235q4 -123 75 -189.5t200 -66.5q125 0 200.5 62.5t75.5 199.5q0 96 -55.5 150.5t-161.5 54.5h-164l45 207h166q55 0 103.5 12t85 40t57 72t20.5 109q0 78 -55 130t-160 52q-129 0 -202.5 -48t-108.5 -173l-215 31q20 86 60 157.5t103.5 124t156 81t216.5 28.5 q102 0 183.5 -25.5t138.5 -71.5t87 -111.5t30 -143.5q0 -135 -65.5 -229.5t-203.5 -141.5q96 -49 137.5 -130t41.5 -161q0 -227 -133.5 -352t-389.5 -125q-115 0 -207 32t-158.5 90t-102 143t-35.5 192z" />
<glyph unicode="4" d="M76 334l37 174l837 907h230l-189 -893h189l-66 -188h-164l-69 -334h-222l70 334h-653zM362 522h406l123 584z" />
<glyph unicode="5" d="M135 387h232q6 -117 63 -169t180 -52q125 0 209 85t84 251q0 96 -52 161.5t-163 65.5q-90 0 -152.5 -27.5t-121.5 -80.5h-199l221 794h797l-41 -205h-600l-100 -370q66 41 129 60.5t141 19.5q90 0 159.5 -32t116.5 -87.5t72 -127t25 -151.5q0 -119 -34 -221t-101.5 -177 t-168 -118t-233.5 -43q-100 0 -185 25.5t-146.5 78t-96.5 132.5t-35 188z" />
<glyph unicode="6" d="M160 465q0 92 16.5 200.5t51 218t89 213t131 182.5t177 127t227.5 48q362 0 403 -338l-215 -37q-16 104 -67 142.5t-142 38.5q-133 0 -237.5 -116t-157.5 -362q72 80 154 110t180 30q90 0 162 -31t121 -85t74.5 -127t25.5 -157q0 -268 -144.5 -413.5t-396.5 -145.5 q-117 0 -201.5 37t-140 103.5t-83 158.5t-27.5 203zM383 399q0 -51 15.5 -95t45 -77.5t73.5 -53t104 -19.5q139 0 221 81.5t82 268.5q0 98 -55.5 163.5t-166.5 65.5q-66 0 -124 -20.5t-101 -62.5t-68.5 -104.5t-25.5 -146.5z" />
<glyph unicode="7" d="M254 0q96 186 178 337.5t166 290t179 277.5t218 305h-716l40 205h984l-39 -186q-215 -285 -406.5 -595t-345.5 -634h-258z" />
<glyph unicode="8" d="M86 326q0 90 27.5 157.5t73.5 116.5t104.5 81t120.5 54q-68 39 -111 107.5t-43 161.5q0 96 36 178t105.5 142t172 95t237.5 35q106 0 189 -27.5t139.5 -75.5t85 -111.5t28.5 -133.5q0 -78 -21.5 -138.5t-59 -107.5t-90 -81t-113.5 -58q78 -35 134 -110t56 -177 q0 -121 -45 -209t-123 -146.5t-185.5 -87t-230.5 -28.5q-125 0 -216 28.5t-151.5 78t-90 116t-29.5 140.5zM317 354q0 -84 65 -144t204 -60q70 0 131 14t108 46t75 84t28 130q0 41 -14.5 78t-46 64.5t-82 44t-119.5 16.5q-186 0 -267.5 -75t-81.5 -198zM479 1012 q0 -78 57.5 -136.5t176.5 -58.5q63 0 120.5 13.5t100.5 44t68.5 80t25.5 120.5q0 37 -13.5 72t-42 62.5t-73.5 45t-106 17.5q-86 0 -146.5 -21.5t-97.5 -57.5t-53.5 -83t-16.5 -98z" />
<glyph unicode="9" d="M104 334h224q16 -106 75.5 -140t157.5 -34q147 0 243.5 125t135.5 358q-72 -80 -156 -112.5t-180 -32.5q-92 0 -164.5 31.5t-125 87t-80 129t-27.5 157.5q0 125 37 226.5t105.5 173t167.5 111.5t226 40q211 0 332 -131t121 -387q0 -92 -11 -199.5t-40 -216t-76 -209 t-119.5 -178.5t-172 -124t-232.5 -46q-199 0 -313.5 90t-127.5 281zM438 932q0 -47 12.5 -91t38 -79t67.5 -55.5t103 -20.5q63 0 121 18.5t101 57.5t68.5 98.5t25.5 143.5q0 51 -15.5 99t-44 83t-72.5 56.5t-102 21.5q-135 0 -219 -80t-84 -252z" />
<glyph unicode=":" horiz-adv-x="481" d="M49 0l60 285h247l-59 -285h-248zM215 780l60 285h247l-59 -285h-248z" />
<glyph unicode=";" horiz-adv-x="481" d="M-25 -195l166 482h236l-219 -482h-183zM215 780l60 285h247l-59 -285h-248z" />
<glyph unicode="&#x3c;" d="M213 604l37 180l1020 420l-47 -227l-729 -287l606 -297l-47 -209z" />
<glyph unicode="=" d="M172 369l43 204h893l-43 -204h-893zM264 823l43 205h891l-43 -205h-891z" />
<glyph unicode="&#x3e;" d="M100 184l47 234l727 282l-604 299l47 205l840 -420l-39 -180z" />
<glyph unicode="?" horiz-adv-x="1038" d="M205 1087q25 90 63.5 164t101 126.5t149.5 81t206 28.5q92 0 168 -24.5t130 -68.5t83 -106.5t29 -136.5t-18.5 -131t-50.5 -103.5t-74 -85t-89 -77.5q-41 -35 -81 -66t-72.5 -62.5t-57 -68.5t-33.5 -86l-6 -31h-229l6 39q12 61 34.5 106.5t55.5 83.5t76 73.5t94 76.5 q43 33 80 64.5t64.5 66.5t44 77t16.5 97q-2 76 -51 121t-142 45q-51 0 -95 -10t-81 -35.5t-65.5 -71t-48.5 -114.5zM334 0l59 281h240l-60 -281h-239z" />
<glyph unicode="@" horiz-adv-x="2004" d="M123 360q0 215 72.5 404.5t208 331t328 222.5t431.5 81q176 0 324.5 -51.5t256 -144.5t167 -224t59.5 -289q0 -147 -32.5 -275t-99 -222.5t-166 -147.5t-234.5 -53q-102 0 -157.5 35.5t-72.5 119.5q-68 -92 -145.5 -131t-169.5 -39q-86 0 -147.5 31t-101.5 83t-58.5 122 t-18.5 145q0 127 37 235.5t103.5 188.5t155.5 125t194 45q78 0 142.5 -33.5t109.5 -109.5l24 121h209l-143 -678q-2 -10 -2 -31q0 -31 16 -51t55 -20q78 0 137.5 39.5t99.5 110.5t60.5 168t20.5 214q0 129 -45 231.5t-127 173t-199 108.5t-260 38q-190 0 -344 -63.5 t-263.5 -177t-169 -272.5t-59.5 -349q0 -133 40 -251t121 -206t204 -139t287 -51q174 0 293.5 38.5t205.5 131.5h220q-111 -180 -290 -259t-444 -79q-184 0 -336.5 57t-263 161.5t-172 253t-61.5 332.5zM791 387q-1 -227 153 -227q78 0 131 38t88 97q45 82 62 178l14 92 q2 10 2 22.5v22.5q0 35 -9 67t-34 56q-23 23 -53.5 35t-73.5 12q-53 0 -103 -27.5t-90 -77.5t-63.5 -123t-23.5 -165z" />
<glyph unicode="A" horiz-adv-x="1404" d="M-47 0l868 1462h246l248 -1462h-254l-57 373h-570l-215 -373h-266zM545 580h432l-90 602z" />
<glyph unicode="B" horiz-adv-x="1310" d="M88 0l309 1462h488q133 0 223 -27.5t145.5 -73.5t79 -107t23.5 -124q0 -152 -75 -237.5t-210 -132.5q96 -47 144.5 -122t48.5 -169q0 -106 -37 -192.5t-114 -147.5t-194.5 -95t-281.5 -34h-549zM367 199h288q195 0 279 67.5t84 200.5q0 90 -61.5 141t-198.5 51h-291z M510 862h289q59 0 115.5 10.5t99.5 37t68.5 71.5t25.5 115q0 76 -55.5 123t-200.5 47h-258z" />
<glyph unicode="C" horiz-adv-x="1458" d="M176 604q0 176 53.5 338t152.5 286t241.5 197.5t320.5 73.5q135 0 234.5 -34.5t167 -99.5t103.5 -157t46 -204l-246 -35q-10 78 -31.5 137t-58.5 99t-92 60.5t-133 20.5q-117 0 -209 -53t-156.5 -144.5t-99.5 -212t-35 -255.5q0 -92 19.5 -173t61.5 -141.5t108.5 -95.5 t160.5 -35q170 0 259.5 83t117.5 228h269q-25 -117 -74 -214t-128 -165.5t-192.5 -106.5t-267.5 -38q-147 0 -258 48t-185.5 134t-111.5 204t-37 255z" />
<glyph unicode="D" horiz-adv-x="1486" d="M88 0l309 1462h480q139 0 250.5 -46t189.5 -127t119 -189.5t41 -233.5q0 -195 -56.5 -354.5t-169 -273t-281.5 -176t-392 -62.5h-490zM377 211h231q156 0 271.5 47t191.5 133t113 205t37 264q0 80 -22.5 151.5t-69 125t-115 84t-160.5 30.5h-258z" />
<glyph unicode="E" horiz-adv-x="1226" d="M88 0l309 1462h971l-43 -213h-727l-82 -389h684l-45 -215h-684l-92 -432h768l-74 -213h-985z" />
<glyph unicode="F" horiz-adv-x="1175" d="M88 0l309 1462h934l-45 -213h-688l-88 -413h647l-47 -215h-645l-131 -621h-246z" />
<glyph unicode="G" horiz-adv-x="1476" d="M174 600q0 176 52.5 339t153.5 287t246.5 198.5t334.5 74.5q236 0 369.5 -113.5t158.5 -322.5l-242 -35q-23 137 -97.5 198.5t-209.5 61.5q-123 0 -218 -55t-159.5 -148.5t-98.5 -214t-34 -252.5q0 -90 20.5 -170.5t63.5 -141t110.5 -96.5t161.5 -36q117 0 198 25.5 t140 66.5l64 301h-324l45 209h555l-135 -620q-86 -78 -227 -135.5t-332 -57.5q-150 0 -261.5 49t-186 135t-111.5 202t-37 251z" />
<glyph unicode="H" horiz-adv-x="1464" d="M88 0l309 1462h248l-125 -592h658l125 592h247l-309 -1462h-248l135 641h-657l-135 -641h-248z" />
<glyph unicode="I" horiz-adv-x="557" d="M88 0l309 1462h248l-309 -1462h-248z" />
<glyph unicode="J" horiz-adv-x="1263" d="M90 385q0 20 1 42t5 44h244q-2 -14 -2 -25.5v-23.5q0 -53 11 -97t39 -78t76 -52.5t120 -18.5q76 0 131 23.5t94 67.5t63.5 106.5t42.5 142.5l201 946h248l-209 -993q-29 -133 -78 -229.5t-120.5 -158t-169 -90t-220.5 -28.5q-104 0 -192 26.5t-150.5 79t-98.5 132.5 t-36 184z" />
<glyph unicode="K" horiz-adv-x="1355" d="M88 0l309 1462h248l-133 -628l735 628h285l-623 -559l367 -903h-268l-293 758l-264 -219l-115 -539h-248z" />
<glyph unicode="L" horiz-adv-x="1173" d="M88 0l309 1462h248l-264 -1247h725l-78 -215h-940z" />
<glyph unicode="M" horiz-adv-x="1746" d="M88 0l309 1462h293l174 -1163l670 1163h299l-309 -1462h-228l226 1063l-621 -1063h-194l-170 1061l-226 -1061h-223z" />
<glyph unicode="N" horiz-adv-x="1454" d="M88 0l309 1462h209l467 -1065l225 1065h242l-309 -1462h-207l-471 1061l-225 -1061h-240z" />
<glyph unicode="O" horiz-adv-x="1581" d="M178 573q0 174 53.5 341t157 297t253.5 209t345 79q135 0 243.5 -44t183.5 -124t116 -192.5t41 -249.5q0 -176 -51.5 -343t-152.5 -296t-251.5 -208t-347.5 -79q-135 0 -244.5 44t-186.5 124t-118 192.5t-41 249.5zM434 586q0 -186 88 -298t260 -112q133 0 232.5 61.5 t166 162t100.5 225.5t34 254q0 92 -21.5 166.5t-65.5 128t-108.5 83t-150.5 29.5q-133 0 -233.5 -61.5t-167 -161.5t-100.5 -225t-34 -252z" />
<glyph unicode="P" horiz-adv-x="1296" d="M88 0l309 1462h490q133 0 224 -35.5t148.5 -92t82 -126t24.5 -135.5q0 -137 -45 -237.5t-130 -165t-205 -95t-269 -30.5h-271l-114 -545h-244zM489 752h254q82 0 152 14t120 49t77.5 94.5t27.5 149.5q0 41 -14 78t-47 63.5t-84 41.5t-127 15h-252z" />
<glyph unicode="Q" horiz-adv-x="1581" d="M178 573q0 174 53.5 341t157 297t254 209t344.5 79q135 0 243.5 -44t183.5 -124t116 -192.5t41 -249.5q0 -111 -20.5 -217.5t-60.5 -203.5t-98.5 -182t-136.5 -151l127 -209l-168 -106l-127 209q-70 -31 -149.5 -48.5t-169.5 -17.5q-135 0 -244.5 44t-186.5 124 t-118 192.5t-41 249.5zM434 586q0 -186 88 -298t260 -112q104 0 193 41l-141 238l165 106l136 -225q92 104 136 248.5t44 294.5q0 92 -21.5 166.5t-65.5 128t-108.5 83t-150.5 29.5q-133 0 -233.5 -61.5t-167 -161.5t-100.5 -225t-34 -252z" />
<glyph unicode="R" horiz-adv-x="1318" d="M88 0l309 1462h473q139 0 233.5 -34.5t153 -90t83 -127t24.5 -145.5q0 -180 -91 -286.5t-245 -151.5l176 -627h-262l-145 580q-20 -2 -42 -2h-44h-258l-121 -578h-244zM498 786h278q74 0 136.5 13.5t107.5 45.5t69.5 85t24.5 131q0 39 -13.5 74.5t-45 62.5t-83.5 43 t-130 16h-246z" />
<glyph unicode="S" horiz-adv-x="1318" d="M78 446h250q12 -141 94 -207.5t258 -66.5q82 0 140.5 19.5t95 53.5t53 80t16.5 101q0 61 -41 115.5t-147 76.5l-176 37q-190 39 -282.5 136.5t-92.5 242.5q0 119 41 207t115.5 145.5t182 85t240.5 27.5q238 0 374 -108.5t155 -315.5l-238 -33q-16 129 -87 190.5 t-218 61.5q-90 0 -150.5 -18.5t-96.5 -49t-51 -69.5t-15 -78q0 -86 46 -133t150 -69l176 -39q104 -25 176 -63t116 -87t62.5 -108t18.5 -127q0 -127 -41 -219.5t-116.5 -151.5t-183 -89t-240.5 -30q-109 0 -212.5 22.5t-185.5 78t-132 148.5t-54 234z" />
<glyph unicode="T" horiz-adv-x="1249" d="M236 1247l45 215h1171l-45 -215h-461l-264 -1247h-248l264 1247h-462z" />
<glyph unicode="U" horiz-adv-x="1409" d="M166 414q0 84 20 178l185 870h245l-184 -876q-20 -82 -20 -152q0 -135 70.5 -196.5t209.5 -61.5q86 0 149.5 25.5t108.5 77t75 128t52 179.5l187 876h247l-184 -876q-35 -164 -89 -282t-133 -193.5t-184.5 -111.5t-244.5 -36q-115 0 -208 27.5t-160.5 83t-104.5 140.5 t-37 200z" />
<glyph unicode="V" horiz-adv-x="1396" d="M264 1462h264l170 -1126l643 1126h273l-864 -1462h-240z" />
<glyph unicode="W" horiz-adv-x="1945" d="M264 1462h275l32 -1110l510 1102h262l54 -1100l499 1108h267l-711 -1462h-248l-53 1151l-537 -1151h-241z" />
<glyph unicode="X" horiz-adv-x="1353" d="M-51 0l676 776l-332 686h270l232 -514l448 514h279l-619 -704l369 -758h-273l-270 582l-498 -582h-282z" />
<glyph unicode="Y" horiz-adv-x="1300" d="M264 1462h266l222 -635l491 635h275l-680 -854l-127 -608h-248l129 608z" />
<glyph unicode="Z" horiz-adv-x="1200" d="M-10 0l37 184l995 1065h-758l45 213h1065l-39 -186l-991 -1061h801l-74 -215h-1081z" />
<glyph unicode="[" horiz-adv-x="630" d="M27 -254l374 1757h461l-43 -198h-225l-289 -1360h225l-43 -199h-460z" />
<glyph unicode="\" horiz-adv-x="731" d="M270 1503h224l149 -1503h-223z" />
<glyph unicode="]" horiz-adv-x="630" d="M-102 -254l43 199h225l289 1360h-226l43 198h461l-375 -1757h-460z" />
<glyph unicode="^" d="M156 612l594 846h192l236 -846h-236l-147 572l-392 -572h-247z" />
<glyph unicode="_" horiz-adv-x="1024" d="M-143 -358l22 106h1022l-22 -106h-1022z" />
<glyph unicode="`" horiz-adv-x="825" d="M389 1518h258l180 -304h-206z" />
<glyph unicode="a" horiz-adv-x="1124" d="M63 264q0 115 50.5 188.5t131.5 116.5t187.5 61.5t220.5 22.5l195 9l6 32q6 37 6 70q0 74 -44 115t-140 41q-111 0 -168 -30t-88 -116l-211 23q51 164 172 232.5t319 68.5q186 0 284.5 -85t100.5 -239q0 -29 -4 -59.5t-10 -63.5l-139 -651h-221l28 139 q-37 -37 -74.5 -67.5t-80.5 -52t-95.5 -34t-115.5 -12.5q-141 0 -225.5 75t-84.5 216zM297 283q0 -53 37 -91t112 -38q63 0 121 19.5t104 53t77.5 81.5t44.5 108l20 90l-158 -8q-102 -6 -171.5 -21.5t-110.5 -42t-58.5 -64.5t-17.5 -87z" />
<glyph unicode="b" horiz-adv-x="1249" d="M63 0l310 1462h233l-112 -536q63 78 148 125t196 47q98 0 168.5 -37t116.5 -100.5t67.5 -145.5t21.5 -174q0 -137 -39.5 -259t-110.5 -214t-170 -146.5t-218 -54.5q-117 0 -204 45t-146 148l-33 -160h-228zM387 401q0 -111 62.5 -177t183.5 -66q80 0 142.5 40 t105.5 107.5t65.5 154.5t22.5 181q0 129 -57.5 196.5t-149.5 67.5q-63 0 -119.5 -23.5t-102.5 -65.5t-78 -98t-46 -122l-17 -78q-8 -33 -10 -60.5t-2 -56.5z" />
<glyph unicode="c" horiz-adv-x="1155" d="M131 418q0 164 47 291t128 213t190.5 131t234.5 45q102 0 177 -29t124 -79t77 -118.5t34 -148.5l-234 -33q-4 47 -16 87t-34.5 70t-60.5 46t-93 16q-72 0 -132.5 -32.5t-104.5 -95t-69.5 -153.5t-25.5 -208t55 -190.5t176 -73.5q111 0 173.5 56t86.5 157h236 q-41 -193 -166 -297.5t-354 -104.5q-106 0 -189.5 34t-140.5 94.5t-88 142t-31 180.5z" />
<glyph unicode="d" horiz-adv-x="1247" d="M121 422q0 137 41 260t113.5 215t172 146.5t218.5 54.5q111 0 195.5 -45t142.5 -144l118 553h234l-312 -1462h-227l29 139q-68 -84 -151 -128t-187 -44q-98 0 -171 36t-121 97.5t-71.5 144.5t-23.5 177zM365 422q0 -115 54 -189.5t165 -74.5q106 0 196 73q51 43 85 99.5 t53 140.5l16 84q12 55 12 111q0 90 -55 157q-31 39 -78 61.5t-115 22.5q-80 0 -141 -39t-104 -105.5t-65.5 -154.5t-22.5 -186z" />
<glyph unicode="e" horiz-adv-x="1187" d="M131 420q0 162 45 289t124 213t187.5 131t237.5 45q100 0 178 -31t131 -85t81 -129t28 -163q0 -35 -5 -83t-14 -95l-6 -37h-751q-2 -8 -3.5 -25.5t-1.5 -29.5q0 -55 14.5 -104.5t44.5 -86t77 -58t112 -21.5q109 0 165 39.5t83 125.5h227q-23 -84 -61.5 -149.5t-98 -109.5 t-142.5 -66.5t-195 -22.5q-109 0 -194 34t-143 94.5t-89 143.5t-31 181zM387 637h526q6 31 7 63q0 100 -56.5 160t-158.5 60q-111 0 -196 -64.5t-122 -218.5z" />
<glyph unicode="f" horiz-adv-x="729" d="M131 0l186 881h-167l38 184h168l19 84q39 176 129 253t250 77q74 0 131 -15.5t82 -27.5l-66 -166q-23 10 -54.5 17t-72.5 7q-74 0 -113.5 -37.5t-56.5 -121.5l-14 -70h256l-39 -184h-258l-187 -881h-231z" />
<glyph unicode="g" horiz-adv-x="1247" d="M49 -82h234q14 -86 65 -120t172 -34q80 0 133.5 27t90 74t58 111.5t38.5 142.5l14 65q-68 -84 -152 -120.5t-190 -36.5q-96 0 -169 32.5t-120 90t-70.5 136.5t-23.5 171q0 115 37 228.5t106.5 204.5t169 147.5t224.5 56.5t205.5 -43t142.5 -142l33 156h227l-195 -905 q-29 -133 -65.5 -240.5t-100 -183.5t-163 -116t-248.5 -40q-231 0 -339 88t-114 250zM373 457q0 -119 56 -181.5t155 -62.5q127 0 220 80t122 215l12 53q4 18 7 37.5t3 38.5q0 125 -55 197.5t-191 72.5q-80 0 -141 -40t-103 -103.5t-63.5 -144t-21.5 -162.5z" />
<glyph unicode="h" horiz-adv-x="1189" d="M63 0l310 1462h233l-117 -542q86 96 176.5 137t182.5 41q150 0 228.5 -81t78.5 -224q0 -61 -14 -125l-142 -668h-233l137 643q4 27 7 49.5t3 44.5q0 78 -36.5 121t-112.5 43q-104 0 -205 -78q-45 -35 -82 -83t-47 -105l-133 -635h-234z" />
<glyph unicode="i" horiz-adv-x="503" d="M68 0l225 1065h233l-225 -1065h-233zM317 1231l50 231h243l-49 -231h-244z" />
<glyph unicode="j" horiz-adv-x="503" d="M-289 -338l70 176q25 -10 56.5 -18t72.5 -8q63 0 97 35.5t52 121.5l234 1096h233l-237 -1108q-18 -86 -46 -149.5t-69 -105.5t-100.5 -62.5t-141.5 -20.5q-68 0 -122 12.5t-99 30.5zM317 1231l50 231h243l-49 -231h-244z" />
<glyph unicode="k" horiz-adv-x="1126" d="M63 0l310 1462h231l-170 -803l524 406h285l-463 -371l271 -694h-242l-211 571l-219 -163l-84 -408h-232z" />
<glyph unicode="l" horiz-adv-x="503" d="M68 0l309 1462h233l-309 -1462h-233z" />
<glyph unicode="m" horiz-adv-x="1777" d="M63 0l226 1065h227l-31 -152q86 98 169 141.5t161 43.5q219 0 264 -193q98 111 188.5 152t188.5 41q135 0 211 -77t76 -208q0 -68 -19 -154l-139 -659h-233l137 637q6 33 10 65.5t4 57.5q0 74 -34.5 107.5t-94.5 33.5q-53 0 -98 -18.5t-90 -53.5q-41 -35 -68.5 -77.5 t-38.5 -98.5l-139 -653h-233l137 639q6 35 10 65.5t4 53.5q0 76 -35 109.5t-96 33.5q-49 0 -97 -23.5t-89 -61.5t-71 -86t-40 -99l-133 -631h-234z" />
<glyph unicode="n" horiz-adv-x="1189" d="M63 0l226 1065h227l-33 -154q86 100 178.5 143.5t186.5 43.5q150 0 228.5 -81t78.5 -224q0 -61 -14 -125l-142 -668h-233l137 643q4 27 7 49.5t3 44.5q0 78 -36.5 121t-112.5 43q-104 0 -205 -78q-45 -35 -82 -83t-47 -105l-133 -635h-234z" />
<glyph unicode="o" horiz-adv-x="1247" d="M131 416q0 160 48 285.5t132 214t198 135.5t245 47q104 0 187 -35t142.5 -94.5t91 -142.5t31.5 -177q0 -162 -46 -289t-129 -214t-196.5 -133t-248.5 -46q-102 0 -186.5 35t-143.5 94.5t-92 141t-33 178.5zM373 420q0 -123 59.5 -193.5t169.5 -70.5q78 0 144.5 33.5 t114.5 96t76 152.5t28 205q0 123 -58.5 194.5t-169.5 71.5q-78 0 -144.5 -33.5t-115.5 -97t-76.5 -155t-27.5 -203.5z" />
<glyph unicode="p" horiz-adv-x="1249" d="M-20 -397l309 1462h227l-29 -141q63 80 151.5 127t199.5 47q98 0 168.5 -36t116.5 -98.5t67.5 -146.5t21.5 -178q0 -137 -39.5 -259t-111.5 -214t-170 -145.5t-217 -53.5q-117 0 -201 44t-143 141l-117 -549h-233zM387 403q0 -111 61.5 -178t184.5 -67q80 0 142.5 40 t105.5 107.5t65.5 154.5t22.5 181q0 129 -57.5 196.5t-149.5 67.5q-63 0 -119.5 -23.5t-102.5 -65.5t-78 -98t-46 -122l-17 -78q-8 -31 -10 -59.5t-2 -55.5z" />
<glyph unicode="q" horiz-adv-x="1249" d="M123 428q2 137 43 259t112.5 213t171 144.5t216.5 53.5q113 0 201.5 -46t144.5 -149l35 162h225l-311 -1462h-234l111 526q-66 -78 -145 -120t-183 -42q-100 0 -173 36t-121 98.5t-70.5 146.5t-22.5 180zM367 422q0 -115 53 -189.5t164 -74.5q109 0 198 73q51 43 85 99.5 t53 140.5l16 84q12 55 12 109q0 88 -55 159q-31 39 -79 61.5t-116 22.5q-80 0 -141 -39t-103 -105.5t-64.5 -154.5t-22.5 -186z" />
<glyph unicode="r" horiz-adv-x="804" d="M63 0l226 1065h227l-33 -158q80 94 157 134t167 40q35 0 58.5 -3t39.5 -7l-61 -211q-20 4 -43 7t-58 3q-41 0 -90 -13t-96 -48q-49 -41 -83 -86t-46 -105l-131 -618h-234z" />
<glyph unicode="s" horiz-adv-x="1085" d="M66 322h223q6 -100 72.5 -136t168.5 -36q115 0 168.5 39.5t53.5 111.5q0 53 -30 85t-110 48l-116 25q-168 37 -235.5 110.5t-67.5 184.5q0 88 34.5 152.5t96 107.5t144.5 63.5t179 20.5q86 0 160 -18.5t129 -56.5t89 -98.5t42 -144.5l-213 -28q-12 78 -58 123t-157 45 q-68 0 -111 -13.5t-67.5 -34t-33.5 -46t-9 -50.5q0 -53 34.5 -82.5t122.5 -48.5l117 -24q164 -35 229.5 -112t65.5 -194q0 -98 -39 -164.5t-103.5 -107.5t-150.5 -58.5t-182 -17.5q-84 0 -164 17.5t-142.5 59.5t-100 109.5t-39.5 168.5z" />
<glyph unicode="t" horiz-adv-x="743" d="M147 881l39 184h166l62 287h233l-61 -287h262l-39 -184h-262l-115 -541q-4 -20 -7 -35.5t-3 -32.5q0 -59 29.5 -81.5t80.5 -22.5q37 0 69 5t58 13l35 -174q-97 -32 -208 -32h-7q-139 0 -216 63t-77 193q0 55 15 112l112 533h-166z" />
<glyph unicode="u" horiz-adv-x="1175" d="M123 268q0 29 3 61.5t11 67.5l142 668h233l-139 -653q-10 -51 -11 -93q0 -72 35 -113.5t111 -41.5q57 0 100 18.5t90 57.5q43 33 82 84t51 112l134 629h233l-223 -1065h-230l33 154q-86 -100 -173 -143.5t-181 -43.5q-152 0 -226.5 82t-74.5 219z" />
<glyph unicode="v" horiz-adv-x="1114" d="M168 1065h260l109 -803l450 803h264l-647 -1065h-239z" />
<glyph unicode="w" horiz-adv-x="1542" d="M166 1065h254l12 -778l385 770h215l55 -770l349 778h245l-536 -1065h-234l-49 774l-381 -774h-229z" />
<glyph unicode="x" horiz-adv-x="1075" d="M-49 0l506 565l-248 500h260l154 -346l299 346h260l-457 -514l264 -551h-256l-180 391l-332 -391h-270z" />
<glyph unicode="y" horiz-adv-x="1116" d="M-20 -362l61 176q23 -8 51.5 -15.5t61.5 -7.5q61 0 99 34t85 114l61 104l-231 1022h258l135 -768l426 768h266l-686 -1131q-49 -82 -91 -144t-88 -103t-101.5 -62.5t-130.5 -21.5q-51 0 -93.5 9t-82.5 26z" />
<glyph unicode="z" horiz-adv-x="991" d="M0 0l35 164l706 717h-546l38 184h848l-32 -164l-707 -717h588l-62 -184h-868z" />
<glyph unicode="{" horiz-adv-x="634" d="M94 526l41 197h15q70 0 108.5 38t54.5 109l76 355q33 156 117 217t211 61h160l-41 -194h-101q-59 0 -89 -24.5t-40 -76.5l-84 -391q-14 -63 -52 -116.5t-114 -75.5q51 -16 70.5 -52t19.5 -81q0 -29 -6 -60l-82 -391q-6 -23 -6 -37q0 -31 17.5 -47t62.5 -16h113l-43 -195 h-152q-109 0 -167 50t-58 149q0 41 8 80l76 354q4 14 4 26.5v24.5q0 47 -24.5 71.5t-82.5 24.5h-12z" />
<glyph unicode="|" horiz-adv-x="516" d="M25 -254l374 1757h222l-375 -1757h-221z" />
<glyph unicode="}" horiz-adv-x="634" d="M-113 -254l41 195h101q59 0 88.5 24.5t40.5 75.5l84 391q14 63 52 116.5t114 76.5q-51 16 -71 52t-20 81q0 29 7 59l82 391q6 20 6 37q0 31 -17.5 47.5t-62.5 16.5h-113l43 194h152q109 0 167 -50t58 -148q0 -41 -8 -80l-76 -355q-4 -14 -4 -26.5v-24.5q0 -47 24.5 -71.5 t81.5 -24.5h13l-41 -197h-15q-70 0 -108.5 -37.5t-54.5 -109.5l-76 -354q-16 -78 -46 -131.5t-72 -86t-94 -47t-116 -14.5h-160z" />
<glyph unicode="~" d="M127 487q12 121 43 198t76 121t103.5 60.5t123.5 16.5q70 0 123 -29t99 -62.5t88 -62.5t89 -29q66 0 102 35t54 133h207q-12 -121 -43 -196.5t-77 -120.5t-104.5 -61.5t-123.5 -16.5q-70 0 -123 28.5t-99.5 64.5t-88 64.5t-89.5 28.5q-66 0 -101.5 -34.5t-51.5 -137.5 h-207z" />
<glyph unicode="&#xa1;" horiz-adv-x="516" d="M-18 -397l231 1020h215l-197 -1020h-249zM233 782l58 283h239l-59 -283h-238z" />
<glyph unicode="&#xa2;" d="M190 600q0 156 43 280t120 211t181.5 134t225.5 53l39 182h133l-41 -190q152 -27 225.5 -124t85.5 -237l-233 -30q-6 72 -32 123t-87 73l-154 -723q98 10 151.5 65.5t76.5 147.5h235q-41 -190 -160.5 -293.5t-341.5 -107.5l-39 -184h-135l41 194q-160 35 -247 150.5 t-87 275.5zM430 608q0 -86 32 -149.5t103 -89.5l154 716q-131 -18 -210 -142t-79 -335z" />
<glyph unicode="&#xa3;" d="M98 0l37 174q98 82 154.5 167t70.5 189q8 41 9 88h-179l41 185h125q-4 31 -8 74t-4 84q0 240 121 366.5t358 126.5q176 0 279.5 -84t128.5 -270l-203 -31q-18 104 -69.5 148.5t-143.5 44.5q-78 0 -127 -24t-77.5 -63.5t-39 -94t-10.5 -115.5q0 -41 4 -81t8 -81h453 l-39 -185h-399q-4 -123 -51.5 -223t-149.5 -192h729l-69 -203h-949z" />
<glyph unicode="&#xa4;" d="M113 309l143 123q-35 72 -35 168q0 129 36 233.5t101 180.5l-102 129l150 125l102 -129q55 29 117.5 45t130.5 16t126 -20.5t105 -55.5l137 125l119 -143l-139 -119q18 -39 29.5 -82t11.5 -90q0 -129 -35 -231.5t-94 -177.5l106 -130l-151 -126l-103 129 q-57 -33 -122.5 -48.5t-137.5 -15.5q-70 0 -128 19.5t-105 54.5l-139 -125zM418 610q0 -102 52 -164.5t151 -62.5q68 0 127 27.5t103 81t69.5 132t25.5 181.5q0 100 -52.5 163.5t-154.5 63.5q-66 0 -124 -27.5t-102 -81t-69.5 -132t-25.5 -181.5z" />
<glyph unicode="&#xa5;" d="M123 299l37 168h354l29 139l-6 29h-349l37 170h244l-215 610h240l198 -624l461 624h244l-471 -610h243l-34 -170h-344l-19 -29l-29 -139h361l-35 -168h-362l-62 -299h-229l61 299h-354z" />
<glyph unicode="&#xa6;" horiz-adv-x="516" d="M25 -254l153 715h221l-153 -715h-221zM250 799l149 704h222l-150 -704h-221z" />
<glyph unicode="&#xa7;" horiz-adv-x="1112" d="M39 143h229q2 -43 15.5 -80.5t41 -65.5t74.5 -43t117 -15t115 13t71.5 36.5t36 55.5t9.5 71q0 43 -28 83t-110 62l-161 43q-150 39 -219.5 117t-69.5 182q0 111 50 188.5t177 116.5q-63 35 -91 95.5t-28 132.5q0 184 132 274t356 90q119 0 198.5 -29.5t131 -76.5 t76 -103.5t34.5 -111.5l-213 -48q-8 39 -25.5 72t-46 57.5t-71.5 38t-103 13.5q-70 0 -116 -12.5t-73.5 -34t-38.5 -52t-11 -65.5q0 -41 25.5 -79t103.5 -60l186 -52q150 -41 209 -115.5t59 -174.5q0 -111 -48 -189t-179 -119q66 -35 92.5 -98t26.5 -131q0 -201 -123 -289 t-340 -88q-225 0 -345 101.5t-126 289.5zM362 623q0 -45 30 -87t114 -65l72 -20q20 -6 47.5 -9.5t52.5 -3.5q39 0 74.5 11.5t63.5 36t45.5 62.5t17.5 91q0 45 -30 87t-114 67l-88 24q-37 10 -88 10q-39 0 -73.5 -12t-62.5 -36.5t-44.5 -63.5t-16.5 -92z" />
<glyph unicode="&#xa8;" horiz-adv-x="825" d="M276 1253l48 230h223l-47 -230h-224zM662 1253l49 230h223l-47 -230h-225z" />
<glyph unicode="&#xa9;" horiz-adv-x="1587" d="M166 731q0 166 55 301t150.5 230.5t223.5 147.5t273 52q156 0 284 -52t220 -147.5t143.5 -230.5t51.5 -301t-54.5 -301t-148.5 -230.5t-222 -147.5t-274 -52q-156 0 -284.5 52t-222 147.5t-144.5 230.5t-51 301zM315 731q0 -135 41 -245.5t115 -189.5t175.5 -121 t221.5 -42q119 0 219.5 42t174 121t114.5 189.5t41 245.5t-41 245.5t-114.5 188.5t-174 120t-219.5 42q-121 0 -222 -42t-175 -120t-115 -188.5t-41 -245.5zM487 729q0 92 27 170t78 133t123.5 86t165.5 31q154 0 235.5 -75t100.5 -197l-181 -31q-12 70 -49 114t-113 44 q-55 0 -94 -23t-62.5 -59.5t-33.5 -86t-10 -104.5t10 -104t32.5 -87t61.5 -59.5t94 -21.5q76 0 118 42t52 120h187q-16 -143 -104.5 -226.5t-254.5 -83.5q-96 0 -167.5 30t-119.5 85t-72 132t-24 171z" />
<glyph unicode="&#xaa;" horiz-adv-x="870" d="M205 891q0 88 38 144.5t100.5 88t144 44t169.5 16.5l117 4q2 16 4 32.5t2 30.5q0 51 -28.5 80t-94.5 29q-84 0 -123.5 -23.5t-58.5 -81.5l-162 19q41 129 127 177t234 48q135 0 207.5 -62.5t72.5 -176.5q0 -41 -10 -93l-100 -471h-172l20 97q-51 -51 -107.5 -84 t-150.5 -33q-102 0 -165.5 61.5t-63.5 153.5zM385 907q0 -35 22.5 -62.5t81.5 -27.5q92 0 160 50.5t86 138.5l13 59l-107 -6q-78 -4 -128 -14.5t-78.5 -29t-39 -46t-10.5 -62.5z" />
<glyph unicode="&#xab;" horiz-adv-x="1060" d="M125 528l367 457h233l-356 -469l149 -453h-225zM555 528l367 457h233l-356 -469l149 -453h-225z" />
<glyph unicode="&#xac;" d="M219 692l43 201h903l-116 -549h-209l75 348h-696z" />
<glyph unicode="&#xad;" horiz-adv-x="798" d="M131 489l49 232h606l-49 -232h-606z" />
<glyph unicode="&#xae;" horiz-adv-x="995" d="M217 1053q0 104 34 186t92 140.5t137 89t169 30.5q98 0 177 -30.5t136.5 -89t88 -140.5t30.5 -186t-33.5 -186.5t-92 -140.5t-137.5 -89t-169 -31q-96 0 -176 31t-137 89t-88 140t-31 187zM328 1053q0 -170 88 -261.5t233 -91.5t234.5 91.5t89.5 261.5t-89.5 261 t-234.5 91t-233 -91t-88 -261zM479 848v426h162q59 0 96 -11.5t57.5 -28.5t27.5 -41t7 -48q0 -47 -15 -74t-56 -47l92 -176h-113l-75 153h-82v-153h-101zM580 1083h71q47 0 60.5 17.5t13.5 42.5q0 23 -16.5 37t-69.5 14h-59v-111z" />
<glyph unicode="&#xaf;" horiz-adv-x="825" d="M299 1264l39 182h565l-37 -182h-567z" />
<glyph unicode="&#xb0;" horiz-adv-x="696" d="M174 1167q0 61 22.5 115.5t62.5 93.5t94.5 61.5t119.5 22.5q63 0 117.5 -22.5t93.5 -61.5t61.5 -93t22.5 -116q0 -63 -22.5 -117.5t-61.5 -94.5t-93 -62.5t-118 -22.5q-66 0 -120 22.5t-94 62.5t-62.5 94.5t-22.5 117.5zM332 1167q0 -68 37.5 -107.5t103.5 -39.5 q61 0 99 40t38 107q0 66 -37.5 106t-99.5 40q-66 0 -103.5 -40t-37.5 -106z" />
<glyph unicode="&#xb1;" d="M102 0l45 203h328l84 393h-377l45 203h375l86 405h211l-86 -405h375l-43 -203h-377l-82 -393h383l-43 -203h-924z" />
<glyph unicode="&#xb2;" horiz-adv-x="843" d="M174 594l27 133q47 35 106.5 77t157.5 114q55 39 99 71.5t75 64t46 66.5t15 80q0 37 -25.5 66.5t-76.5 29.5q-59 0 -101 -26.5t-69 -114.5l-170 27q18 63 47 113.5t72 85t102.5 52t141.5 17.5q59 0 108 -17.5t84 -49t54.5 -73.5t19.5 -91q0 -59 -15.5 -106.5t-46 -88.5 t-74.5 -79t-100 -77q-41 -29 -78.5 -57.5t-78.5 -56.5h321l-55 -160h-586z" />
<glyph unicode="&#xb3;" horiz-adv-x="843" d="M184 852h160q6 -145 158 -145q66 0 107.5 29.5t41.5 101.5q0 55 -31.5 79.5t-84.5 24.5h-99l29 148h94q143 0 143 124q0 39 -28.5 65t-87.5 26q-68 0 -109 -24t-63 -103l-160 24q31 119 108.5 183.5t235.5 64.5q129 0 199.5 -64.5t70.5 -156.5q0 -76 -34.5 -127 t-114.5 -86q53 -29 79.5 -77t26.5 -105q0 -125 -81.5 -199t-245.5 -74q-143 0 -228.5 75t-85.5 216z" />
<glyph unicode="&#xb4;" horiz-adv-x="825" d="M322 1214l299 304h282l-350 -304h-231z" />
<glyph unicode="&#xb5;" horiz-adv-x="1175" d="M-31 -397l310 1462h233l-139 -653q-10 -47 -11 -86q0 -74 34 -118t112 -44q57 0 100 18.5t90 57.5q43 33 82 84t51 112l134 629h233l-223 -1065h-230l33 154q-66 -86 -138.5 -133.5t-172.5 -47.5q-61 0 -101 17.5t-69 54.5l-96 -442h-232z" />
<glyph unicode="&#xb6;" horiz-adv-x="1294" d="M170 940q0 111 36 206t118 165.5t214 110.5t324 40h535l-371 -1747h-225l329 1555h-208l-330 -1555h-225l182 856q-104 6 -177 40t-117 86.5t-64.5 114.5t-20.5 128z" />
<glyph unicode="&#xb7;" horiz-adv-x="473" d="M176 621l60 284h247l-59 -284h-248z" />
<glyph unicode="&#xb8;" horiz-adv-x="825" d="M240 -424l20 133q41 -8 69.5 -10t55.5 -2q57 0 84 12t27 47q0 29 -28 42.5t-93 13.5h-56l103 200h135l-57 -114q49 -6 80.5 -21.5t52 -35t29 -43t8.5 -46.5q0 -59 -22.5 -96t-61.5 -57.5t-93.5 -28.5t-117.5 -8q-29 0 -62.5 3t-72.5 11z" />
<glyph unicode="&#xb9;" horiz-adv-x="843" d="M299 1270l289 147h198l-174 -823h-192l135 641l-197 -96z" />
<glyph unicode="&#xba;" horiz-adv-x="870" d="M195 999q0 117 34.5 209t96 157t144.5 99.5t179 34.5q76 0 138.5 -25.5t106.5 -70.5t68.5 -105.5t24.5 -130.5q0 -121 -33.5 -214t-94 -157.5t-144.5 -97t-183 -32.5q-78 0 -139 25.5t-106 70.5t-68.5 106.5t-23.5 130.5zM385 1010q0 -86 41 -137.5t119 -51.5 q113 0 182.5 86t69.5 250q0 86 -42 136t-120 50q-111 0 -180.5 -86t-69.5 -247z" />
<glyph unicode="&#xbb;" horiz-adv-x="1060" d="M-4 63l358 469l-149 453h223l172 -465l-367 -457h-237zM426 63l358 469l-149 453h223l172 -465l-366 -457h-238z" />
<glyph unicode="&#xbc;" horiz-adv-x="1892" d="M205 1270l289 147h198l-174 -823h-192l135 641l-197 -96zM351 0l1013 1415h232l-1014 -1415h-231zM1112 178l23 121l512 526h167l-106 -499h104l-49 -148h-86l-37 -176h-163l38 176h-403zM1325 326h219l62 290z" />
<glyph unicode="&#xbd;" horiz-adv-x="1892" d="M205 1270l289 147h198l-174 -823h-192l135 641l-197 -96zM289 0l1013 1415h232l-1014 -1415h-231zM1126 2l27 133q47 35 106.5 77t157.5 114q55 39 99 71.5t75 64t46 66.5t15 80q0 37 -25.5 66.5t-76.5 29.5q-59 0 -101 -26.5t-69 -114.5l-170 27q18 63 47 113.5t72 85 t102.5 52t141.5 17.5q59 0 108 -17.5t84 -49t54.5 -73.5t19.5 -91q0 -59 -15.5 -106.5t-46 -88.5t-74.5 -79t-100 -77q-41 -29 -78.5 -57.5t-78.5 -56.5h321l-55 -160h-586z" />
<glyph unicode="&#xbe;" horiz-adv-x="1892" d="M192 852h160q6 -145 158 -145q66 0 107.5 29.5t41.5 101.5q0 55 -31.5 79.5t-84.5 24.5h-99l29 148h94q143 0 143 124q0 39 -28.5 65t-87.5 26q-68 0 -109 -24t-63 -103l-160 24q31 119 108.5 183.5t235.5 64.5q129 0 199.5 -64.5t70.5 -156.5q0 -76 -34.5 -127 t-114.5 -86q53 -29 79.5 -77t26.5 -105q0 -125 -81.5 -199t-245.5 -74q-143 0 -228.5 75t-85.5 216zM465 0l1013 1415h232l-1014 -1415h-231zM1112 178l23 121l512 526h167l-106 -499h104l-49 -148h-86l-37 -176h-163l38 176h-403zM1325 326h219l62 290z" />
<glyph unicode="&#xbf;" horiz-adv-x="1017" d="M0 -84q0 74 18.5 130t50 102.5t72.5 85t88 77.5q41 35 81 65t74 62.5t57.5 69.5t33.5 86l4 29h232l-9 -37q-12 -61 -34.5 -106.5t-55 -84.5t-74.5 -73.5t-94 -75.5q-43 -35 -79.5 -65.5t-64.5 -64.5t-44 -76t-16 -97q0 -78 50 -122t140 -44q51 0 95 10t81 35.5t65.5 71 t49.5 114.5l209 -28q-25 -90 -64 -164t-101.5 -126t-149.5 -81t-205 -29q-94 0 -170 24.5t-129.5 68.5t-82 106.5t-28.5 136.5zM500 784l59 281h240l-58 -281h-241z" />
<glyph unicode="&#xc0;" horiz-adv-x="1404" d="M-47 0l868 1462h246l248 -1462h-254l-57 373h-570l-215 -373h-266zM545 580h432l-90 602zM659 1868h266l195 -285h-215z" />
<glyph unicode="&#xc1;" horiz-adv-x="1404" d="M-47 0l868 1462h246l248 -1462h-254l-57 373h-570l-215 -373h-266zM545 580h432l-90 602zM799 1583l307 285h286l-362 -285h-231z" />
<glyph unicode="&#xc2;" horiz-adv-x="1404" d="M-47 0l868 1462h246l248 -1462h-254l-57 373h-570l-215 -373h-266zM545 580h432l-90 602zM608 1583l299 285h234l186 -285h-207l-114 154l-189 -154h-209z" />
<glyph unicode="&#xc3;" horiz-adv-x="1404" d="M-47 0l868 1462h246l248 -1462h-254l-57 373h-570l-215 -373h-266zM545 580h432l-90 602zM577 1589q14 141 76 203.5t170 62.5q43 0 80 -15t67.5 -33.5t59 -34t57.5 -15.5q47 0 69.5 19.5t31.5 72.5h170q-14 -141 -75 -202.5t-169 -61.5q-43 0 -80 15.5t-67.5 35 t-59.5 35t-55 15.5q-47 0 -71.5 -22t-33.5 -75h-170z" />
<glyph unicode="&#xc4;" horiz-adv-x="1404" d="M-47 0l868 1462h246l248 -1462h-254l-57 373h-570l-215 -373h-266zM545 580h432l-90 602zM647 1610l50 237h231l-51 -237h-230zM1045 1610l49 237h231l-51 -237h-229z" />
<glyph unicode="&#xc5;" horiz-adv-x="1404" d="M-47 0l848 1430q-39 29 -61.5 72.5t-22.5 109.5q0 57 18.5 99t50 70.5t72.5 43t88 14.5q45 0 87 -14.5t75 -43t51.5 -70.5t18.5 -99q0 -72 -29 -119t-76 -74l242 -1419h-254l-57 373h-570l-215 -373h-266zM545 580h432l-90 602zM850 1612q0 -53 25.5 -78t70.5 -25 q47 0 72.5 25t25.5 78q0 55 -25.5 79.5t-72.5 24.5q-45 0 -70.5 -24.5t-25.5 -79.5z" />
<glyph unicode="&#xc6;" horiz-adv-x="2127" d="M-74 0l1147 1462h1198l-45 -213h-684l-82 -389h641l-45 -215h-641l-92 -432h725l-74 -213h-934l97 461h-570l-358 -461h-283zM721 670h461l123 579h-138z" />
<glyph unicode="&#xc7;" horiz-adv-x="1458" d="M176 604q0 176 53.5 338t152.5 286t241.5 197.5t320.5 73.5q135 0 234.5 -34.5t167 -99.5t103.5 -157t46 -204l-246 -35q-10 78 -31.5 137t-58.5 99t-92 60.5t-133 20.5q-117 0 -209 -53t-156.5 -144.5t-99.5 -212t-35 -255.5q0 -92 19.5 -173t61.5 -141.5t108.5 -95.5 t160.5 -35q170 0 259.5 83t117.5 228h269q-25 -113 -70 -206t-118 -160.5t-175 -108.5t-240 -47l-36 -74q98 -16 135 -58t37 -93q0 -111 -78 -154t-226 -43q-55 0 -137 17l21 131q43 -6 71.5 -9.5t57.5 -3.5q59 0 86.5 15.5t27.5 52.5q0 27 -27.5 41t-96.5 14h-58l84 166 q-127 12 -223 65.5t-160.5 137.5t-96.5 194.5t-32 239.5z" />
<glyph unicode="&#xc8;" horiz-adv-x="1226" d="M88 0l309 1462h971l-43 -213h-727l-82 -389h684l-45 -215h-684l-92 -432h768l-74 -213h-985zM633 1868h266l195 -285h-215z" />
<glyph unicode="&#xc9;" horiz-adv-x="1226" d="M88 0l309 1462h971l-43 -213h-727l-82 -389h684l-45 -215h-684l-92 -432h768l-74 -213h-985zM707 1583l307 285h286l-362 -285h-231z" />
<glyph unicode="&#xca;" horiz-adv-x="1226" d="M88 0l309 1462h971l-43 -213h-727l-82 -389h684l-45 -215h-684l-92 -432h768l-74 -213h-985zM548 1583l299 285h234l186 -285h-207l-114 154l-189 -154h-209z" />
<glyph unicode="&#xcb;" horiz-adv-x="1226" d="M88 0l309 1462h971l-43 -213h-727l-82 -389h684l-45 -215h-684l-92 -432h768l-74 -213h-985zM591 1610l50 237h231l-51 -237h-230zM989 1610l49 237h231l-51 -237h-229z" />
<glyph unicode="&#xcc;" horiz-adv-x="557" d="M88 0l309 1462h248l-309 -1462h-248zM240 1868h266l195 -285h-215z" />
<glyph unicode="&#xcd;" horiz-adv-x="557" d="M88 0l309 1462h248l-309 -1462h-248zM375 1583l307 285h286l-362 -285h-231z" />
<glyph unicode="&#xce;" horiz-adv-x="557" d="M88 0l309 1462h248l-309 -1462h-248zM182 1583l299 285h234l186 -285h-207l-114 154l-189 -154h-209z" />
<glyph unicode="&#xcf;" horiz-adv-x="557" d="M88 0l309 1462h248l-309 -1462h-248zM223 1610l50 237h231l-51 -237h-230zM621 1610l49 237h231l-51 -237h-229z" />
<glyph unicode="&#xd0;" horiz-adv-x="1517" d="M96 651l43 207h162l127 604h479q139 0 251 -46t189.5 -127t118.5 -189.5t41 -233.5q0 -195 -56 -354.5t-169 -273t-282 -176t-392 -62.5h-489l137 651h-160zM408 211h231q156 0 271.5 47t191.5 133t112.5 205t36.5 264q0 80 -22.5 151.5t-68.5 125t-114.5 84t-160.5 30.5 h-258l-84 -393h348l-45 -207h-346z" />
<glyph unicode="&#xd1;" horiz-adv-x="1454" d="M88 0l309 1462h209l467 -1065l225 1065h242l-309 -1462h-207l-471 1061l-225 -1061h-240zM616 1589q14 141 76 203.5t170 62.5q43 0 80 -15t67.5 -33.5t59 -34t57.5 -15.5q47 0 69.5 19.5t31.5 72.5h170q-14 -141 -75 -202.5t-169 -61.5q-43 0 -80 15.5t-67.5 35 t-59.5 35t-55 15.5q-47 0 -71.5 -22t-33.5 -75h-170z" />
<glyph unicode="&#xd2;" horiz-adv-x="1581" d="M178 573q0 174 53.5 341t157 297t253.5 209t345 79q135 0 243.5 -44t183.5 -124t116 -192.5t41 -249.5q0 -176 -51.5 -343t-152.5 -296t-251.5 -208t-347.5 -79q-135 0 -244.5 44t-186.5 124t-118 192.5t-41 249.5zM434 586q0 -186 88 -298t260 -112q133 0 232.5 61.5 t166 162t100.5 225.5t34 254q0 92 -21.5 166.5t-65.5 128t-108.5 83t-150.5 29.5q-133 0 -233.5 -61.5t-167 -161.5t-100.5 -225t-34 -252zM754 1868h266l195 -285h-215z" />
<glyph unicode="&#xd3;" horiz-adv-x="1581" d="M178 573q0 174 53.5 341t157 297t253.5 209t345 79q135 0 243.5 -44t183.5 -124t116 -192.5t41 -249.5q0 -176 -51.5 -343t-152.5 -296t-251.5 -208t-347.5 -79q-135 0 -244.5 44t-186.5 124t-118 192.5t-41 249.5zM434 586q0 -186 88 -298t260 -112q133 0 232.5 61.5 t166 162t100.5 225.5t34 254q0 92 -21.5 166.5t-65.5 128t-108.5 83t-150.5 29.5q-133 0 -233.5 -61.5t-167 -161.5t-100.5 -225t-34 -252zM826 1583l307 285h286l-362 -285h-231z" />
<glyph unicode="&#xd4;" horiz-adv-x="1581" d="M178 573q0 174 53.5 341t157 297t253.5 209t345 79q135 0 243.5 -44t183.5 -124t116 -192.5t41 -249.5q0 -176 -51.5 -343t-152.5 -296t-251.5 -208t-347.5 -79q-135 0 -244.5 44t-186.5 124t-118 192.5t-41 249.5zM434 586q0 -186 88 -298t260 -112q133 0 232.5 61.5 t166 162t100.5 225.5t34 254q0 92 -21.5 166.5t-65.5 128t-108.5 83t-150.5 29.5q-133 0 -233.5 -61.5t-167 -161.5t-100.5 -225t-34 -252zM663 1583l299 285h234l186 -285h-207l-114 154l-189 -154h-209z" />
<glyph unicode="&#xd5;" horiz-adv-x="1581" d="M178 573q0 174 53.5 341t157 297t253.5 209t345 79q135 0 243.5 -44t183.5 -124t116 -192.5t41 -249.5q0 -176 -51.5 -343t-152.5 -296t-251.5 -208t-347.5 -79q-135 0 -244.5 44t-186.5 124t-118 192.5t-41 249.5zM434 586q0 -186 88 -298t260 -112q133 0 232.5 61.5 t166 162t100.5 225.5t34 254q0 92 -21.5 166.5t-65.5 128t-108.5 83t-150.5 29.5q-133 0 -233.5 -61.5t-167 -161.5t-100.5 -225t-34 -252zM645 1589q14 141 76 203.5t170 62.5q43 0 80 -15t67.5 -33.5t59 -34t57.5 -15.5q47 0 69.5 19.5t31.5 72.5h170q-14 -141 -75 -202.5 t-169 -61.5q-43 0 -80 15.5t-67.5 35t-59.5 35t-55 15.5q-47 0 -71.5 -22t-33.5 -75h-170z" />
<glyph unicode="&#xd6;" horiz-adv-x="1581" d="M178 573q0 174 53.5 341t157 297t253.5 209t345 79q135 0 243.5 -44t183.5 -124t116 -192.5t41 -249.5q0 -176 -51.5 -343t-152.5 -296t-251.5 -208t-347.5 -79q-135 0 -244.5 44t-186.5 124t-118 192.5t-41 249.5zM434 586q0 -186 88 -298t260 -112q133 0 232.5 61.5 t166 162t100.5 225.5t34 254q0 92 -21.5 166.5t-65.5 128t-108.5 83t-150.5 29.5q-133 0 -233.5 -61.5t-167 -161.5t-100.5 -225t-34 -252zM700 1610l50 237h231l-51 -237h-230zM1098 1610l49 237h231l-51 -237h-229z" />
<glyph unicode="&#xd7;" d="M188 395l363 305l-252 314l164 131l250 -307l362 305l123 -144l-367 -309l248 -309l-166 -131l-243 305l-361 -303z" />
<glyph unicode="&#xd8;" horiz-adv-x="1581" d="M147 10l148 170q-117 158 -117 393q0 174 53.5 341t157 297t253.5 209t345 79q109 0 198 -27.5t161 -80.5l135 155l110 -92l-143 -166q123 -158 123 -399q0 -176 -51.5 -343t-152.5 -296t-251.5 -208t-347.5 -79q-113 0 -206 30t-167 85l-137 -160zM434 586 q0 -59 8.5 -110.5t26.5 -94.5l721 831q-86 74 -221 74q-133 0 -233.5 -61.5t-167 -161.5t-100.5 -225t-34 -252zM551 256q90 -80 231 -80q133 0 232.5 61.5t166 162t100.5 225.5t34 254q0 123 -39 213z" />
<glyph unicode="&#xd9;" horiz-adv-x="1409" d="M166 414q0 84 20 178l185 870h245l-184 -876q-20 -82 -20 -152q0 -135 70.5 -196.5t209.5 -61.5q86 0 149.5 25.5t108.5 77t75 128t52 179.5l187 876h247l-184 -876q-35 -164 -89 -282t-133 -193.5t-184.5 -111.5t-244.5 -36q-115 0 -208 27.5t-160.5 83t-104.5 140.5 t-37 200zM659 1868h266l195 -285h-215z" />
<glyph unicode="&#xda;" horiz-adv-x="1409" d="M166 414q0 84 20 178l185 870h245l-184 -876q-20 -82 -20 -152q0 -135 70.5 -196.5t209.5 -61.5q86 0 149.5 25.5t108.5 77t75 128t52 179.5l187 876h247l-184 -876q-35 -164 -89 -282t-133 -193.5t-184.5 -111.5t-244.5 -36q-115 0 -208 27.5t-160.5 83t-104.5 140.5 t-37 200zM785 1583l307 285h286l-362 -285h-231z" />
<glyph unicode="&#xdb;" horiz-adv-x="1409" d="M166 414q0 84 20 178l185 870h245l-184 -876q-20 -82 -20 -152q0 -135 70.5 -196.5t209.5 -61.5q86 0 149.5 25.5t108.5 77t75 128t52 179.5l187 876h247l-184 -876q-35 -164 -89 -282t-133 -193.5t-184.5 -111.5t-244.5 -36q-115 0 -208 27.5t-160.5 83t-104.5 140.5 t-37 200zM600 1583l299 285h234l186 -285h-207l-114 154l-189 -154h-209z" />
<glyph unicode="&#xdc;" horiz-adv-x="1409" d="M166 414q0 84 20 178l185 870h245l-184 -876q-20 -82 -20 -152q0 -135 70.5 -196.5t209.5 -61.5q86 0 149.5 25.5t108.5 77t75 128t52 179.5l187 876h247l-184 -876q-35 -164 -89 -282t-133 -193.5t-184.5 -111.5t-244.5 -36q-115 0 -208 27.5t-160.5 83t-104.5 140.5 t-37 200zM645 1610l50 237h231l-51 -237h-230zM1043 1610l49 237h231l-51 -237h-229z" />
<glyph unicode="&#xdd;" horiz-adv-x="1300" d="M264 1462h266l222 -635l491 635h275l-680 -854l-127 -608h-248l129 608zM730 1583l307 285h286l-362 -285h-231z" />
<glyph unicode="&#xde;" horiz-adv-x="1296" d="M88 0l309 1462h244l-55 -262h245q133 0 225.5 -36t149 -92t81 -125.5t24.5 -135.5q0 -137 -45 -237.5t-129 -165t-204 -95t-269 -30.5h-273l-59 -283h-244zM434 489h252q82 0 151.5 14.5t121 49.5t79 94.5t27.5 149.5q0 41 -14.5 77.5t-47 63.5t-85 42t-125.5 15h-252z " />
<glyph unicode="&#xdf;" horiz-adv-x="1208" d="M66 0l223 1059q43 207 164.5 313.5t330.5 106.5q102 0 178 -26t126.5 -71t75 -106.5t24.5 -132.5q0 -135 -65.5 -223.5t-188.5 -126.5q111 -41 169 -131.5t58 -198.5q0 -102 -26.5 -190.5t-85 -153t-152.5 -102t-229 -37.5q-137 0 -244 45l61 172q35 -14 80 -23.5 t105 -9.5q135 0 198.5 76.5t63.5 218.5q0 102 -66.5 162.5t-199.5 60.5h-84l36 182h78q51 0 99.5 13.5t85.5 43t59.5 79t22.5 122.5q0 78 -46.5 128t-138.5 50q-115 0 -178 -62t-94 -206l-217 -1032h-223z" />
<glyph unicode="&#xe0;" horiz-adv-x="1124" d="M63 264q0 115 50.5 188.5t131.5 116.5t187.5 61.5t220.5 22.5l195 9l6 32q6 37 6 70q0 74 -44 115t-140 41q-111 0 -168 -30t-88 -116l-211 23q51 164 172 232.5t319 68.5q186 0 284.5 -85t100.5 -239q0 -29 -4 -59.5t-10 -63.5l-139 -651h-221l28 139 q-37 -37 -74.5 -67.5t-80.5 -52t-95.5 -34t-115.5 -12.5q-141 0 -225.5 75t-84.5 216zM297 283q0 -53 37 -91t112 -38q63 0 121 19.5t104 53t77.5 81.5t44.5 108l20 90l-158 -8q-102 -6 -171.5 -21.5t-110.5 -42t-58.5 -64.5t-17.5 -87zM479 1518h258l180 -304h-206z" />
<glyph unicode="&#xe1;" horiz-adv-x="1124" d="M63 264q0 115 50.5 188.5t131.5 116.5t187.5 61.5t220.5 22.5l195 9l6 32q6 37 6 70q0 74 -44 115t-140 41q-111 0 -168 -30t-88 -116l-211 23q51 164 172 232.5t319 68.5q186 0 284.5 -85t100.5 -239q0 -29 -4 -59.5t-10 -63.5l-139 -651h-221l28 139 q-37 -37 -74.5 -67.5t-80.5 -52t-95.5 -34t-115.5 -12.5q-141 0 -225.5 75t-84.5 216zM297 283q0 -53 37 -91t112 -38q63 0 121 19.5t104 53t77.5 81.5t44.5 108l20 90l-158 -8q-102 -6 -171.5 -21.5t-110.5 -42t-58.5 -64.5t-17.5 -87zM553 1214l299 304h282l-350 -304 h-231z" />
<glyph unicode="&#xe2;" horiz-adv-x="1124" d="M63 264q0 115 50.5 188.5t131.5 116.5t187.5 61.5t220.5 22.5l195 9l6 32q6 37 6 70q0 74 -44 115t-140 41q-111 0 -168 -30t-88 -116l-211 23q51 164 172 232.5t319 68.5q186 0 284.5 -85t100.5 -239q0 -29 -4 -59.5t-10 -63.5l-139 -651h-221l28 139 q-37 -37 -74.5 -67.5t-80.5 -52t-95.5 -34t-115.5 -12.5q-141 0 -225.5 75t-84.5 216zM297 283q0 -53 37 -91t112 -38q63 0 121 19.5t104 53t77.5 81.5t44.5 108l20 90l-158 -8q-102 -6 -171.5 -21.5t-110.5 -42t-58.5 -64.5t-17.5 -87zM366 1214l301 304h234l180 -304h-203 l-112 175l-193 -175h-207z" />
<glyph unicode="&#xe3;" horiz-adv-x="1124" d="M63 264q0 115 50.5 188.5t131.5 116.5t187.5 61.5t220.5 22.5l195 9l6 32q6 37 6 70q0 74 -44 115t-140 41q-111 0 -168 -30t-88 -116l-211 23q51 164 172 232.5t319 68.5q186 0 284.5 -85t100.5 -239q0 -29 -4 -59.5t-10 -63.5l-139 -651h-221l28 139 q-37 -37 -74.5 -67.5t-80.5 -52t-95.5 -34t-115.5 -12.5q-141 0 -225.5 75t-84.5 216zM297 283q0 -53 37 -91t112 -38q63 0 121 19.5t104 53t77.5 81.5t44.5 108l20 90l-158 -8q-102 -6 -171.5 -21.5t-110.5 -42t-58.5 -64.5t-17.5 -87zM354 1235q14 141 73.5 203.5 t166.5 62.5q43 0 78.5 -15.5t66.5 -33.5t58.5 -33.5t56.5 -15.5q47 0 70.5 19.5t31.5 72.5h162q-14 -141 -73.5 -202.5t-166.5 -61.5q-43 0 -78.5 15.5t-66.5 33.5t-58.5 33.5t-54.5 15.5q-47 0 -71.5 -20.5t-32.5 -73.5h-162z" />
<glyph unicode="&#xe4;" horiz-adv-x="1124" d="M63 264q0 115 50.5 188.5t131.5 116.5t187.5 61.5t220.5 22.5l195 9l6 32q6 37 6 70q0 74 -44 115t-140 41q-111 0 -168 -30t-88 -116l-211 23q51 164 172 232.5t319 68.5q186 0 284.5 -85t100.5 -239q0 -29 -4 -59.5t-10 -63.5l-139 -651h-221l28 139 q-37 -37 -74.5 -67.5t-80.5 -52t-95.5 -34t-115.5 -12.5q-141 0 -225.5 75t-84.5 216zM297 283q0 -53 37 -91t112 -38q63 0 121 19.5t104 53t77.5 81.5t44.5 108l20 90l-158 -8q-102 -6 -171.5 -21.5t-110.5 -42t-58.5 -64.5t-17.5 -87zM426 1253l48 230h223l-47 -230h-224z M812 1253l49 230h223l-47 -230h-225z" />
<glyph unicode="&#xe5;" horiz-adv-x="1124" d="M63 264q0 115 50.5 188.5t131.5 116.5t187.5 61.5t220.5 22.5l195 9l6 32q6 37 6 70q0 74 -44 115t-140 41q-111 0 -168 -30t-88 -116l-211 23q51 164 172 232.5t319 68.5q186 0 284.5 -85t100.5 -239q0 -29 -4 -59.5t-10 -63.5l-139 -651h-221l28 139 q-37 -37 -74.5 -67.5t-80.5 -52t-95.5 -34t-115.5 -12.5q-141 0 -225.5 75t-84.5 216zM297 283q0 -53 37 -91t112 -38q63 0 121 19.5t104 53t77.5 81.5t44.5 108l20 90l-158 -8q-102 -6 -171.5 -21.5t-110.5 -42t-58.5 -64.5t-17.5 -87zM512 1423q0 55 18 96.5t49 69 t71 40.5t85 13q43 0 84 -13t71.5 -40.5t49 -68.5t18.5 -97q0 -55 -18.5 -96t-49 -67.5t-71.5 -40t-84 -13.5q-45 0 -85 13.5t-71 40t-49 67.5t-18 96zM641 1423q0 -51 25.5 -75.5t68.5 -24.5t68.5 24.5t25.5 75.5q0 53 -25.5 77t-68.5 24t-68.5 -24t-25.5 -77z" />
<glyph unicode="&#xe6;" horiz-adv-x="1832" d="M63 264q0 115 49.5 188.5t129.5 116.5t183 61.5t216 22.5l193 9l6 32q6 31 6 60q0 82 -47 124t-133 42q-102 0 -159.5 -30t-88.5 -116l-209 23q49 164 167 232.5t300 68.5q129 0 205.5 -45t113.5 -133q72 88 164 133t219 45q98 0 175 -31t129.5 -85t79 -129t26.5 -163 q0 -72 -16 -166l-9 -49h-743v-49q0 -123 61.5 -199.5t178.5 -76.5q104 0 161.5 39.5t81.5 125.5h228q-45 -172 -162 -260t-328 -88q-78 0 -137.5 17.5t-105.5 48t-79.5 72.5t-58.5 94q-41 -51 -84 -93.5t-96 -71t-120.5 -45t-156.5 -16.5q-162 0 -251 75t-89 216zM297 283 q0 -53 38 -91t118 -38q78 0 134 21.5t95 57t62.5 82.5t35.5 101l19 90l-156 -8q-100 -6 -166.5 -21.5t-106.5 -42t-56.5 -64.5t-16.5 -87zM1040 637h519q6 31 6 63q0 94 -51.5 157t-157.5 63t-191.5 -64.5t-124.5 -218.5z" />
<glyph unicode="&#xe7;" horiz-adv-x="1155" d="M131 418q0 164 47 291t128 213t190.5 131t234.5 45q102 0 177 -29t124 -79t77 -118.5t34 -148.5l-234 -33q-4 47 -16 87t-34.5 70t-60.5 46t-93 16q-72 0 -132.5 -32.5t-104.5 -95t-69.5 -153.5t-25.5 -208t55 -190.5t176 -73.5q111 0 173.5 56t86.5 157h236 q-39 -182 -154 -285.5t-323 -114.5l-35 -71q49 -6 80.5 -21.5t52 -35t29 -43t8.5 -46.5q0 -59 -22.5 -96t-61.5 -57.5t-93.5 -28.5t-117.5 -8q-29 0 -62.5 3t-72.5 11l20 133q41 -8 69.5 -10t55.5 -2q57 0 84 12t27 47q0 29 -28 42.5t-93 13.5h-55l81 161q-86 12 -152.5 51 t-112.5 97.5t-69.5 134.5t-23.5 162z" />
<glyph unicode="&#xe8;" horiz-adv-x="1187" d="M131 420q0 162 45 289t124 213t187.5 131t237.5 45q100 0 178 -31t131 -85t81 -129t28 -163q0 -35 -5 -83t-14 -95l-6 -37h-751q-2 -8 -3.5 -25.5t-1.5 -29.5q0 -55 14.5 -104.5t44.5 -86t77 -58t112 -21.5q109 0 165 39.5t83 125.5h227q-23 -84 -61.5 -149.5t-98 -109.5 t-142.5 -66.5t-195 -22.5q-109 0 -194 34t-143 94.5t-89 143.5t-31 181zM387 637h526q6 31 7 63q0 100 -56.5 160t-158.5 60q-111 0 -196 -64.5t-122 -218.5zM502 1518h258l180 -304h-206z" />
<glyph unicode="&#xe9;" horiz-adv-x="1187" d="M131 420q0 162 45 289t124 213t187.5 131t237.5 45q100 0 178 -31t131 -85t81 -129t28 -163q0 -35 -5 -83t-14 -95l-6 -37h-751q-2 -8 -3.5 -25.5t-1.5 -29.5q0 -55 14.5 -104.5t44.5 -86t77 -58t112 -21.5q109 0 165 39.5t83 125.5h227q-23 -84 -61.5 -149.5t-98 -109.5 t-142.5 -66.5t-195 -22.5q-109 0 -194 34t-143 94.5t-89 143.5t-31 181zM387 637h526q6 31 7 63q0 100 -56.5 160t-158.5 60q-111 0 -196 -64.5t-122 -218.5zM568 1214l299 304h282l-350 -304h-231z" />
<glyph unicode="&#xea;" horiz-adv-x="1187" d="M131 420q0 162 45 289t124 213t187.5 131t237.5 45q100 0 178 -31t131 -85t81 -129t28 -163q0 -35 -5 -83t-14 -95l-6 -37h-751q-2 -8 -3.5 -25.5t-1.5 -29.5q0 -55 14.5 -104.5t44.5 -86t77 -58t112 -21.5q109 0 165 39.5t83 125.5h227q-23 -84 -61.5 -149.5t-98 -109.5 t-142.5 -66.5t-195 -22.5q-109 0 -194 34t-143 94.5t-89 143.5t-31 181zM387 637h526q6 31 7 63q0 100 -56.5 160t-158.5 60q-111 0 -196 -64.5t-122 -218.5zM391 1214l301 304h234l180 -304h-203l-112 175l-193 -175h-207z" />
<glyph unicode="&#xeb;" horiz-adv-x="1187" d="M131 420q0 162 45 289t124 213t187.5 131t237.5 45q100 0 178 -31t131 -85t81 -129t28 -163q0 -35 -5 -83t-14 -95l-6 -37h-751q-2 -8 -3.5 -25.5t-1.5 -29.5q0 -55 14.5 -104.5t44.5 -86t77 -58t112 -21.5q109 0 165 39.5t83 125.5h227q-23 -84 -61.5 -149.5t-98 -109.5 t-142.5 -66.5t-195 -22.5q-109 0 -194 34t-143 94.5t-89 143.5t-31 181zM387 637h526q6 31 7 63q0 100 -56.5 160t-158.5 60q-111 0 -196 -64.5t-122 -218.5zM446 1253l48 230h223l-47 -230h-224zM832 1253l49 230h223l-47 -230h-225z" />
<glyph unicode="&#xec;" horiz-adv-x="503" d="M68 0l225 1065h233l-225 -1065h-233zM127 1518h258l180 -304h-206z" />
<glyph unicode="&#xed;" horiz-adv-x="503" d="M68 0l225 1065h233l-225 -1065h-233zM277 1214l299 304h282l-350 -304h-231z" />
<glyph unicode="&#xee;" horiz-adv-x="503" d="M68 0l225 1065h233l-225 -1065h-233zM73 1214l301 304h234l180 -304h-203l-112 175l-193 -175h-207z" />
<glyph unicode="&#xef;" horiz-adv-x="503" d="M68 0l225 1065h233l-225 -1065h-233zM120 1253l48 230h223l-47 -230h-224zM506 1253l49 230h223l-47 -230h-225z" />
<glyph unicode="&#xf0;" horiz-adv-x="1247" d="M121 403q0 143 45 256t120.5 190t175 118t206.5 41q109 0 188.5 -38t126.5 -104q-4 125 -50 210t-118 138l-149 -129l-93 101l113 96q-94 35 -203 45l60 174q86 -10 156.5 -31.5t136.5 -52.5l155 133l92 -102l-127 -109q129 -102 191.5 -255.5t62.5 -346.5 q0 -381 -165.5 -575.5t-456.5 -194.5q-115 0 -202 36t-146.5 96.5t-89 139t-29.5 164.5zM362 424q0 -55 14.5 -104.5t45.5 -86t77 -57t109 -20.5q82 0 145.5 31.5t107.5 87t66.5 131t22.5 163.5q0 53 -16 101.5t-57 83.5q-72 66 -191 65q-78 0 -138.5 -31.5t-101 -85 t-62.5 -125t-22 -153.5z" />
<glyph unicode="&#xf1;" horiz-adv-x="1189" d="M63 0l226 1065h227l-33 -154q86 100 178.5 143.5t186.5 43.5q150 0 228.5 -81t78.5 -224q0 -61 -14 -125l-142 -668h-233l137 643q4 27 7 49.5t3 44.5q0 78 -36.5 121t-112.5 43q-104 0 -205 -78q-45 -35 -82 -83t-47 -105l-133 -635h-234zM414 1235q14 141 73.5 203.5 t166.5 62.5q43 0 78.5 -15.5t66.5 -33.5t58.5 -33.5t56.5 -15.5q47 0 70.5 19.5t31.5 72.5h162q-14 -141 -73.5 -202.5t-166.5 -61.5q-43 0 -78.5 15.5t-66.5 33.5t-58.5 33.5t-54.5 15.5q-47 0 -71.5 -20.5t-32.5 -73.5h-162z" />
<glyph unicode="&#xf2;" horiz-adv-x="1247" d="M131 416q0 160 48 285.5t132 214t198 135.5t245 47q104 0 187 -35t142.5 -94.5t91 -142.5t31.5 -177q0 -162 -46 -289t-129 -214t-196.5 -133t-248.5 -46q-102 0 -186.5 35t-143.5 94.5t-92 141t-33 178.5zM373 420q0 -123 59.5 -193.5t169.5 -70.5q78 0 144.5 33.5 t114.5 96t76 152.5t28 205q0 123 -58.5 194.5t-169.5 71.5q-78 0 -144.5 -33.5t-115.5 -97t-76.5 -155t-27.5 -203.5zM528 1518h258l180 -304h-206z" />
<glyph unicode="&#xf3;" horiz-adv-x="1247" d="M131 416q0 160 48 285.5t132 214t198 135.5t245 47q104 0 187 -35t142.5 -94.5t91 -142.5t31.5 -177q0 -162 -46 -289t-129 -214t-196.5 -133t-248.5 -46q-102 0 -186.5 35t-143.5 94.5t-92 141t-33 178.5zM373 420q0 -123 59.5 -193.5t169.5 -70.5q78 0 144.5 33.5 t114.5 96t76 152.5t28 205q0 123 -58.5 194.5t-169.5 71.5q-78 0 -144.5 -33.5t-115.5 -97t-76.5 -155t-27.5 -203.5zM590 1214l299 304h282l-350 -304h-231z" />
<glyph unicode="&#xf4;" horiz-adv-x="1247" d="M131 416q0 160 48 285.5t132 214t198 135.5t245 47q104 0 187 -35t142.5 -94.5t91 -142.5t31.5 -177q0 -162 -46 -289t-129 -214t-196.5 -133t-248.5 -46q-102 0 -186.5 35t-143.5 94.5t-92 141t-33 178.5zM373 420q0 -123 59.5 -193.5t169.5 -70.5q78 0 144.5 33.5 t114.5 96t76 152.5t28 205q0 123 -58.5 194.5t-169.5 71.5q-78 0 -144.5 -33.5t-115.5 -97t-76.5 -155t-27.5 -203.5zM419 1214l301 304h234l180 -304h-203l-112 175l-193 -175h-207z" />
<glyph unicode="&#xf5;" horiz-adv-x="1247" d="M131 416q0 160 48 285.5t132 214t198 135.5t245 47q104 0 187 -35t142.5 -94.5t91 -142.5t31.5 -177q0 -162 -46 -289t-129 -214t-196.5 -133t-248.5 -46q-102 0 -186.5 35t-143.5 94.5t-92 141t-33 178.5zM373 420q0 -123 59.5 -193.5t169.5 -70.5q78 0 144.5 33.5 t114.5 96t76 152.5t28 205q0 123 -58.5 194.5t-169.5 71.5q-78 0 -144.5 -33.5t-115.5 -97t-76.5 -155t-27.5 -203.5zM405 1235q14 141 73.5 203.5t166.5 62.5q43 0 78.5 -15.5t66.5 -33.5t58.5 -33.5t56.5 -15.5q47 0 70.5 19.5t31.5 72.5h162q-14 -141 -73.5 -202.5 t-166.5 -61.5q-43 0 -78.5 15.5t-66.5 33.5t-58.5 33.5t-54.5 15.5q-47 0 -71.5 -20.5t-32.5 -73.5h-162z" />
<glyph unicode="&#xf6;" horiz-adv-x="1247" d="M131 416q0 160 48 285.5t132 214t198 135.5t245 47q104 0 187 -35t142.5 -94.5t91 -142.5t31.5 -177q0 -162 -46 -289t-129 -214t-196.5 -133t-248.5 -46q-102 0 -186.5 35t-143.5 94.5t-92 141t-33 178.5zM373 420q0 -123 59.5 -193.5t169.5 -70.5q78 0 144.5 33.5 t114.5 96t76 152.5t28 205q0 123 -58.5 194.5t-169.5 71.5q-78 0 -144.5 -33.5t-115.5 -97t-76.5 -155t-27.5 -203.5zM473 1253l48 230h223l-47 -230h-224zM859 1253l49 230h223l-47 -230h-225z" />
<glyph unicode="&#xf7;" d="M213 596l45 203h891l-43 -203h-893zM446 176l58 270h239l-57 -270h-240zM612 948l58 271h239l-57 -271h-240z" />
<glyph unicode="&#xf8;" horiz-adv-x="1247" d="M94 -12l129 145q-92 117 -92 283q0 160 48 285.5t132 214t198 135.5t245 47q76 0 140 -18.5t118 -53.5l112 127l103 -88l-115 -131q45 -57 69.5 -130t24.5 -155q0 -162 -46 -289t-129 -214t-196.5 -133t-248.5 -46q-78 0 -143.5 19.5t-118.5 54.5l-127 -143zM373 420 q0 -57 12 -103l487 551q-57 41 -135 41t-144.5 -33.5t-115.5 -97t-76.5 -155t-27.5 -203.5zM463 199q55 -43 139 -43q78 0 144.5 33.5t114.5 96t76 152.5t28 205q0 29 -4.5 56.5t-10.5 50.5z" />
<glyph unicode="&#xf9;" horiz-adv-x="1175" d="M123 268q0 29 3 61.5t11 67.5l142 668h233l-139 -653q-10 -51 -11 -93q0 -72 35 -113.5t111 -41.5q57 0 100 18.5t90 57.5q43 33 82 84t51 112l134 629h233l-223 -1065h-230l33 154q-86 -100 -173 -143.5t-181 -43.5q-152 0 -226.5 82t-74.5 219zM483 1518h258l180 -304 h-206z" />
<glyph unicode="&#xfa;" horiz-adv-x="1175" d="M123 268q0 29 3 61.5t11 67.5l142 668h233l-139 -653q-10 -51 -11 -93q0 -72 35 -113.5t111 -41.5q57 0 100 18.5t90 57.5q43 33 82 84t51 112l134 629h233l-223 -1065h-230l33 154q-86 -100 -173 -143.5t-181 -43.5q-152 0 -226.5 82t-74.5 219zM576 1214l299 304h282 l-350 -304h-231z" />
<glyph unicode="&#xfb;" horiz-adv-x="1175" d="M123 268q0 29 3 61.5t11 67.5l142 668h233l-139 -653q-10 -51 -11 -93q0 -72 35 -113.5t111 -41.5q57 0 100 18.5t90 57.5q43 33 82 84t51 112l134 629h233l-223 -1065h-230l33 154q-86 -100 -173 -143.5t-181 -43.5q-152 0 -226.5 82t-74.5 219zM405 1214l301 304h234 l180 -304h-203l-112 175l-193 -175h-207z" />
<glyph unicode="&#xfc;" horiz-adv-x="1175" d="M123 268q0 29 3 61.5t11 67.5l142 668h233l-139 -653q-10 -51 -11 -93q0 -72 35 -113.5t111 -41.5q57 0 100 18.5t90 57.5q43 33 82 84t51 112l134 629h233l-223 -1065h-230l33 154q-86 -100 -173 -143.5t-181 -43.5q-152 0 -226.5 82t-74.5 219zM452 1253l48 230h223 l-47 -230h-224zM838 1253l49 230h223l-47 -230h-225z" />
<glyph unicode="&#xfd;" horiz-adv-x="1116" d="M-20 -362l61 176q23 -8 51.5 -15.5t61.5 -7.5q61 0 99 34t85 114l61 104l-231 1022h258l135 -768l426 768h266l-686 -1131q-49 -82 -91 -144t-88 -103t-101.5 -62.5t-130.5 -21.5q-51 0 -93.5 9t-82.5 26zM539 1214l299 304h282l-350 -304h-231z" />
<glyph unicode="&#xfe;" horiz-adv-x="1249" d="M-20 -397l393 1859h233l-114 -538q63 80 150 127t196 47q98 0 168.5 -37t116.5 -100.5t67.5 -145.5t21.5 -174q0 -137 -39.5 -260t-110.5 -215t-170 -145.5t-218 -53.5q-117 0 -201 44t-143 141l-117 -549h-233zM387 399q0 -106 62.5 -173.5t183.5 -67.5q80 0 142.5 40 t105.5 107.5t65.5 154.5t22.5 181q0 129 -57.5 196.5t-149.5 67.5q-63 0 -119.5 -23.5t-102.5 -65.5t-78 -98t-46 -122l-17 -78q-8 -33 -10 -61.5t-2 -57.5z" />
<glyph unicode="&#xff;" horiz-adv-x="1116" d="M-20 -362l61 176q23 -8 51.5 -15.5t61.5 -7.5q61 0 99 34t85 114l61 104l-231 1022h258l135 -768l426 768h266l-686 -1131q-49 -82 -91 -144t-88 -103t-101.5 -62.5t-130.5 -21.5q-51 0 -93.5 9t-82.5 26zM415 1253l48 230h223l-47 -230h-224zM801 1253l49 230h223 l-47 -230h-225z" />
<glyph unicode="&#x152;" horiz-adv-x="2189" d="M178 573q0 174 54.5 341t153.5 297t241.5 209t318.5 79q86 0 152.5 -19.5t117 -54t87 -82t61.5 -102.5l47 221h920l-43 -213h-682l-82 -389h639l-45 -215h-639l-93 -432h723l-73 -213h-934l33 154q-72 -84 -171.5 -137.5t-240.5 -53.5q-117 0 -216 44t-173 124 t-115 192.5t-41 249.5zM434 586q0 -186 85 -298t239 -112q129 0 224 61.5t157.5 162t93.5 226.5t31 253q0 186 -81 296.5t-237 110.5q-125 0 -220 -61.5t-159.5 -161.5t-98.5 -225t-34 -252z" />
<glyph unicode="&#x153;" horiz-adv-x="1974" d="M131 416q0 160 48 285.5t129 214t189.5 135.5t231.5 47q147 0 233.5 -63.5t131.5 -164.5q76 111 177 169.5t249 58.5q98 0 173.5 -31t128 -85t80 -129t27.5 -163q0 -72 -16 -166l-8 -49h-742v-49q0 -123 61.5 -199.5t176.5 -76.5q104 0 160.5 39.5t83.5 125.5h227 q-45 -172 -161 -260t-316 -88q-86 0 -148.5 19.5t-107.5 52.5t-76 73t-55 83q-80 -113 -184.5 -170.5t-252.5 -57.5q-100 0 -181 35t-138 94.5t-89 141t-32 178.5zM373 420q0 -123 58 -193.5t165 -70.5q78 0 143.5 33.5t113.5 96t74.5 152.5t26.5 205q0 123 -56 194.5 t-167 71.5q-76 0 -141.5 -33.5t-113.5 -97t-75.5 -155t-27.5 -203.5zM1184 637h516q6 31 6 63q0 45 -13.5 85t-39 70t-65.5 47.5t-93 17.5q-104 0 -188 -64.5t-123 -218.5z" />
<glyph unicode="&#x178;" horiz-adv-x="1300" d="M264 1462h266l222 -635l491 635h275l-680 -854l-127 -608h-248l129 608zM585 1610l50 237h231l-51 -237h-230zM983 1610l49 237h231l-51 -237h-229z" />
<glyph unicode="&#x2c6;" horiz-adv-x="825" d="M229 1214l301 304h234l180 -304h-203l-112 175l-193 -175h-207z" />
<glyph unicode="&#x2dc;" horiz-adv-x="825" d="M215 1235q14 141 73.5 203.5t166.5 62.5q43 0 78.5 -15.5t66.5 -33.5t58.5 -33.5t56.5 -15.5q47 0 70.5 19.5t31.5 72.5h162q-14 -141 -73.5 -202.5t-166.5 -61.5q-43 0 -78.5 15.5t-66.5 33.5t-58.5 33.5t-54.5 15.5q-47 0 -71.5 -20.5t-32.5 -73.5h-162z" />
<glyph unicode="&#x2000;" horiz-adv-x="934" />
<glyph unicode="&#x2001;" horiz-adv-x="1868" />
<glyph unicode="&#x2002;" horiz-adv-x="934" />
<glyph unicode="&#x2003;" horiz-adv-x="1868" />
<glyph unicode="&#x2004;" horiz-adv-x="622" />
<glyph unicode="&#x2005;" horiz-adv-x="467" />
<glyph unicode="&#x2006;" horiz-adv-x="311" />
<glyph unicode="&#x2007;" horiz-adv-x="311" />
<glyph unicode="&#x2008;" horiz-adv-x="233" />
<glyph unicode="&#x2009;" horiz-adv-x="373" />
<glyph unicode="&#x200a;" horiz-adv-x="103" />
<glyph unicode="&#x2010;" horiz-adv-x="798" d="M131 489l49 232h606l-49 -232h-606z" />
<glyph unicode="&#x2011;" horiz-adv-x="798" d="M131 489l49 232h606l-49 -232h-606z" />
<glyph unicode="&#x2012;" horiz-adv-x="798" d="M131 489l49 232h606l-49 -232h-606z" />
<glyph unicode="&#x2013;" horiz-adv-x="1024" d="M37 494l47 223h1024l-47 -223h-1024z" />
<glyph unicode="&#x2014;" horiz-adv-x="2048" d="M37 494l47 223h2048l-47 -223h-2048z" />
<glyph unicode="&#x2018;" horiz-adv-x="458" d="M229 981l222 481h180l-164 -481h-238z" />
<glyph unicode="&#x2019;" horiz-adv-x="458" d="M209 981l166 481h235l-221 -481h-180z" />
<glyph unicode="&#x201a;" horiz-adv-x="458" d="M-37 -195l168 482h234l-220 -482h-182z" />
<glyph unicode="&#x201c;" horiz-adv-x="804" d="M229 981l222 481h172l-164 -481h-230zM584 981l221 481h172l-164 -481h-229z" />
<glyph unicode="&#x201d;" horiz-adv-x="804" d="M209 981l166 481h227l-221 -481h-172zM563 981l166 481h227l-221 -481h-172z" />
<glyph unicode="&#x201e;" horiz-adv-x="804" d="M-37 -195l168 482h227l-219 -482h-176zM315 -195l168 482h228l-219 -482h-177z" />
<glyph unicode="&#x2022;" horiz-adv-x="780" d="M168 745q0 63 22.5 118t62.5 93.5t94 60t118 21.5q63 0 116.5 -21.5t92.5 -60t60.5 -93.5t21.5 -118q0 -66 -21.5 -120t-60.5 -92.5t-92.5 -60t-116.5 -21.5t-117.5 21.5t-94.5 60t-62.5 93t-22.5 119.5z" />
<glyph unicode="&#x2026;" horiz-adv-x="1878" d="M49 0l60 285h247l-59 -285h-248zM747 0l60 285h247l-59 -285h-248zM1446 0l60 285h247l-59 -285h-248z" />
<glyph unicode="&#x202f;" horiz-adv-x="373" />
<glyph unicode="&#x2039;" horiz-adv-x="638" d="M125 528l367 457h241l-356 -469l149 -453h-233z" />
<glyph unicode="&#x203a;" horiz-adv-x="638" d="M-4 63l358 469l-149 453h231l172 -465l-366 -457h-246z" />
<glyph unicode="&#x205f;" horiz-adv-x="467" />
<glyph unicode="&#x20ac;" d="M66 465l59 160h115q2 41 7 79.5t11 77.5h-139l57 160h119q33 109 85 203t125 162.5t165 107.5t204 39q106 0 182.5 -28.5t127.5 -81t79.5 -126t39.5 -163.5l-218 -35q-16 111 -62 171t-163 60q-121 0 -205 -85t-131 -224h389l-59 -160h-369q-6 -39 -10 -77.5t-6 -79.5 h377l-60 -160h-315q14 -168 83 -234.5t169 -66.5q66 0 112 18.5t76.5 51t50 79.5t31.5 105h219q-35 -221 -153.5 -338t-343.5 -117q-121 0 -208 39t-143.5 107.5t-87 159.5t-36.5 196h-174z" />
<glyph unicode="&#x2122;" horiz-adv-x="1871" d="M248 1313l31 149h692l-31 -149h-264l-141 -670h-170l143 670h-260zM903 643l174 819h201l111 -626l376 626h207l-174 -819h-153l120 565l-344 -565h-141l-102 563l-121 -563h-154z" />
<glyph unicode="&#x25fc;" horiz-adv-x="1064" d="M0 0v1065h1065v-1065h-1065z" />
</font>
</defs>
</svg>
